<?xml version="1.0" encoding="UTF-8"?>
<svg xmlns="http://www.w3.org/2000/svg" xmlns:xlink="http://www.w3.org/1999/xlink" width="1920" height="1080" viewBox="0 0 1920 1080">
<defs>
<g>
<g id="glyph-0-0">
<path d="M 0.535156 -1.675781 C 0.675781 -1.300781 0.84375 -1.003906 1.035156 -0.78125 C 1.363281 -0.394531 1.773438 -0.199219 2.265625 -0.199219 C 2.53125 -0.199219 2.761719 -0.285156 2.957031 -0.453125 C 3.148438 -0.621094 3.246094 -0.855469 3.246094 -1.15625 C 3.246094 -1.425781 3.148438 -1.664062 2.953125 -1.863281 C 2.828125 -1.992188 2.558594 -2.183594 2.148438 -2.4375 L 1.4375 -2.878906 C 1.222656 -3.015625 1.050781 -3.152344 0.921875 -3.292969 C 0.6875 -3.554688 0.570312 -3.84375 0.570312 -4.164062 C 0.570312 -4.582031 0.710938 -4.933594 0.988281 -5.210938 C 1.269531 -5.492188 1.636719 -5.632812 2.097656 -5.632812 C 2.289062 -5.632812 2.519531 -5.585938 2.785156 -5.492188 C 3.050781 -5.398438 3.203125 -5.351562 3.242188 -5.351562 C 3.347656 -5.351562 3.417969 -5.375 3.457031 -5.421875 C 3.496094 -5.472656 3.527344 -5.542969 3.546875 -5.632812 L 3.71875 -5.632812 L 3.902344 -3.855469 L 3.703125 -3.855469 C 3.566406 -4.390625 3.347656 -4.765625 3.050781 -4.976562 C 2.75 -5.1875 2.453125 -5.292969 2.160156 -5.292969 C 1.933594 -5.292969 1.734375 -5.226562 1.566406 -5.09375 C 1.394531 -4.957031 1.308594 -4.769531 1.308594 -4.53125 C 1.308594 -4.316406 1.375 -4.136719 1.503906 -3.984375 C 1.636719 -3.828125 1.835938 -3.667969 2.113281 -3.5 L 2.84375 -3.046875 C 3.300781 -2.765625 3.625 -2.507812 3.8125 -2.269531 C 3.996094 -2.03125 4.089844 -1.75 4.089844 -1.425781 C 4.089844 -0.988281 3.925781 -0.621094 3.59375 -0.328125 C 3.265625 -0.0351562 2.84375 0.109375 2.332031 0.109375 C 2.074219 0.109375 1.804688 0.0625 1.523438 -0.0351562 C 1.242188 -0.132812 1.082031 -0.183594 1.042969 -0.183594 C 0.945312 -0.183594 0.878906 -0.152344 0.84375 -0.09375 C 0.808594 -0.0351562 0.789062 0.03125 0.777344 0.0976562 L 0.59375 0.0976562 L 0.347656 -1.675781 Z "/>
</g>
<g id="glyph-0-1">
<path d="M 2.121094 -3.75 L 2.121094 -3.457031 L 1.289062 -3.457031 L 1.28125 -1.113281 C 1.28125 -0.90625 1.300781 -0.753906 1.335938 -0.648438 C 1.398438 -0.460938 1.527344 -0.367188 1.71875 -0.367188 C 1.816406 -0.367188 1.898438 -0.390625 1.972656 -0.433594 C 2.042969 -0.480469 2.125 -0.554688 2.21875 -0.65625 L 2.324219 -0.566406 L 2.234375 -0.445312 C 2.09375 -0.253906 1.945312 -0.121094 1.785156 -0.0390625 C 1.628906 0.0390625 1.476562 0.078125 1.332031 0.078125 C 1.011719 0.078125 0.792969 -0.0664062 0.679688 -0.351562 C 0.617188 -0.503906 0.585938 -0.71875 0.585938 -0.992188 L 0.585938 -3.457031 L 0.140625 -3.457031 C 0.128906 -3.464844 0.117188 -3.476562 0.113281 -3.484375 C 0.105469 -3.492188 0.101562 -3.5 0.101562 -3.515625 C 0.101562 -3.542969 0.109375 -3.5625 0.121094 -3.578125 C 0.132812 -3.59375 0.171875 -3.628906 0.234375 -3.683594 C 0.421875 -3.835938 0.558594 -3.960938 0.640625 -4.058594 C 0.722656 -4.15625 0.917969 -4.410156 1.226562 -4.820312 C 1.261719 -4.820312 1.28125 -4.820312 1.289062 -4.8125 C 1.296875 -4.808594 1.296875 -4.789062 1.296875 -4.753906 L 1.296875 -3.75 Z "/>
</g>
<g id="glyph-0-2">
<path d="M 1.910156 -3.816406 C 2.292969 -3.816406 2.625 -3.683594 2.914062 -3.417969 C 3.199219 -3.15625 3.34375 -2.78125 3.34375 -2.292969 L 0.761719 -2.292969 C 0.789062 -1.664062 0.929688 -1.207031 1.1875 -0.917969 C 1.445312 -0.632812 1.75 -0.488281 2.105469 -0.488281 C 2.390625 -0.488281 2.628906 -0.5625 2.824219 -0.710938 C 3.019531 -0.859375 3.199219 -1.074219 3.363281 -1.347656 L 3.507812 -1.296875 C 3.394531 -0.953125 3.1875 -0.632812 2.882812 -0.339844 C 2.578125 -0.046875 2.203125 0.0976562 1.761719 0.0976562 C 1.25 0.0976562 0.859375 -0.09375 0.578125 -0.480469 C 0.300781 -0.867188 0.164062 -1.308594 0.164062 -1.8125 C 0.164062 -2.355469 0.324219 -2.828125 0.648438 -3.222656 C 0.96875 -3.617188 1.390625 -3.816406 1.910156 -3.816406 Z M 1.671875 -3.519531 C 1.363281 -3.519531 1.128906 -3.382812 0.964844 -3.109375 C 0.878906 -2.960938 0.816406 -2.777344 0.777344 -2.554688 L 2.496094 -2.554688 C 2.464844 -2.828125 2.414062 -3.027344 2.339844 -3.160156 C 2.207031 -3.398438 1.984375 -3.519531 1.671875 -3.519531 Z "/>
</g>
<g id="glyph-0-3">
<path d="M 1.332031 -0.75 C 1.402344 -0.566406 1.507812 -0.425781 1.644531 -0.335938 C 1.785156 -0.246094 1.949219 -0.199219 2.140625 -0.199219 C 2.433594 -0.199219 2.683594 -0.34375 2.890625 -0.636719 C 3.097656 -0.929688 3.203125 -1.335938 3.203125 -1.855469 C 3.203125 -2.355469 3.09375 -2.726562 2.878906 -2.972656 C 2.664062 -3.21875 2.414062 -3.34375 2.128906 -3.34375 C 1.925781 -3.34375 1.746094 -3.28125 1.578125 -3.160156 C 1.414062 -3.035156 1.332031 -2.914062 1.332031 -2.796875 Z M 0.0351562 1.679688 C 0.292969 1.664062 0.453125 1.609375 0.523438 1.519531 C 0.59375 1.425781 0.625 1.28125 0.625 1.082031 L 0.625 -2.824219 C 0.625 -3.03125 0.601562 -3.164062 0.550781 -3.21875 C 0.5 -3.277344 0.40625 -3.308594 0.269531 -3.308594 C 0.238281 -3.308594 0.210938 -3.304688 0.183594 -3.304688 C 0.160156 -3.300781 0.121094 -3.296875 0.0742188 -3.289062 L 0.0742188 -3.421875 L 0.460938 -3.546875 C 0.472656 -3.550781 0.746094 -3.644531 1.277344 -3.828125 C 1.292969 -3.828125 1.300781 -3.824219 1.308594 -3.808594 C 1.316406 -3.796875 1.316406 -3.785156 1.316406 -3.769531 L 1.316406 -3.21875 C 1.496094 -3.398438 1.65625 -3.53125 1.789062 -3.617188 C 2.035156 -3.769531 2.285156 -3.84375 2.542969 -3.84375 C 2.917969 -3.84375 3.238281 -3.6875 3.507812 -3.367188 C 3.777344 -3.046875 3.914062 -2.613281 3.914062 -2.058594 C 3.914062 -1.515625 3.753906 -1.023438 3.429688 -0.582031 C 3.105469 -0.140625 2.695312 0.0820312 2.207031 0.0820312 C 2.054688 0.0820312 1.921875 0.0625 1.8125 0.0234375 C 1.636719 -0.03125 1.476562 -0.136719 1.332031 -0.289062 L 1.332031 1.042969 C 1.332031 1.316406 1.375 1.484375 1.464844 1.546875 C 1.554688 1.609375 1.75 1.652344 2.050781 1.671875 L 2.050781 1.816406 L 0.0351562 1.816406 Z "/>
</g>
<g id="glyph-0-4">
<rect x="0" y="0" width="0" height="0" mask="url(#mask-0)"/>
</g>
<g id="glyph-0-5">
<path d="M 0.648438 -0.707031 C 0.796875 -0.707031 0.992188 -0.628906 1.238281 -0.476562 C 1.484375 -0.320312 1.691406 -0.242188 1.863281 -0.242188 C 2.242188 -0.242188 2.527344 -0.371094 2.710938 -0.628906 C 2.894531 -0.886719 2.988281 -1.164062 2.988281 -1.464844 C 2.988281 -1.753906 2.910156 -2.011719 2.761719 -2.230469 C 2.511719 -2.601562 2.085938 -2.789062 1.484375 -2.789062 C 1.449219 -2.789062 1.414062 -2.785156 1.382812 -2.785156 C 1.351562 -2.785156 1.3125 -2.78125 1.269531 -2.773438 L 1.261719 -2.878906 C 1.695312 -3.039062 2.039062 -3.21875 2.285156 -3.421875 C 2.535156 -3.625 2.660156 -3.894531 2.660156 -4.226562 C 2.660156 -4.523438 2.5625 -4.75 2.367188 -4.902344 C 2.167969 -5.058594 1.945312 -5.136719 1.691406 -5.136719 C 1.394531 -5.136719 1.132812 -5.023438 0.902344 -4.804688 C 0.777344 -4.6875 0.644531 -4.5 0.5 -4.25 L 0.375 -4.28125 C 0.484375 -4.691406 0.683594 -5.023438 0.980469 -5.269531 C 1.277344 -5.515625 1.617188 -5.640625 2.007812 -5.640625 C 2.421875 -5.640625 2.742188 -5.527344 2.96875 -5.296875 C 3.195312 -5.070312 3.308594 -4.808594 3.308594 -4.507812 C 3.308594 -4.246094 3.214844 -4.003906 3.027344 -3.785156 C 2.921875 -3.660156 2.757812 -3.519531 2.535156 -3.363281 C 2.796875 -3.253906 3.003906 -3.125 3.160156 -2.972656 C 3.457031 -2.6875 3.605469 -2.328125 3.605469 -1.890625 C 3.605469 -1.375 3.402344 -0.921875 2.996094 -0.527344 C 2.589844 -0.136719 2.015625 0.0625 1.265625 0.0625 C 0.933594 0.0625 0.699219 0.0117188 0.5625 -0.0859375 C 0.429688 -0.1875 0.363281 -0.292969 0.363281 -0.40625 C 0.363281 -0.476562 0.382812 -0.546875 0.429688 -0.609375 C 0.472656 -0.675781 0.546875 -0.707031 0.648438 -0.707031 Z "/>
</g>
<g id="glyph-0-6">
<path d="M 7.328125 -2.078125 L 7.328125 -1.675781 L 0.980469 -1.675781 L 0.980469 -2.078125 Z "/>
</g>
<g id="glyph-0-7">
<path d="M 0.0742188 -0.113281 C 0.296875 -0.144531 0.441406 -0.199219 0.511719 -0.277344 C 0.582031 -0.359375 0.613281 -0.546875 0.613281 -0.847656 L 0.613281 -4.753906 C 0.613281 -4.90625 0.59375 -5.015625 0.554688 -5.089844 C 0.515625 -5.160156 0.421875 -5.195312 0.269531 -5.195312 C 0.238281 -5.195312 0.210938 -5.195312 0.179688 -5.191406 C 0.152344 -5.1875 0.121094 -5.179688 0.0859375 -5.175781 L 0.0859375 -5.320312 C 0.203125 -5.355469 0.351562 -5.398438 0.527344 -5.449219 C 0.703125 -5.5 0.824219 -5.535156 0.890625 -5.558594 L 1.28125 -5.679688 L 1.289062 -5.652344 L 1.289062 -3.152344 C 1.460938 -3.347656 1.613281 -3.492188 1.746094 -3.585938 C 1.984375 -3.746094 2.242188 -3.828125 2.519531 -3.828125 C 2.957031 -3.828125 3.257812 -3.644531 3.417969 -3.277344 C 3.503906 -3.082031 3.546875 -2.824219 3.546875 -2.507812 L 3.546875 -0.847656 C 3.546875 -0.558594 3.582031 -0.371094 3.648438 -0.285156 C 3.714844 -0.199219 3.851562 -0.140625 4.058594 -0.113281 L 4.058594 0 L 2.292969 0 L 2.292969 -0.113281 C 2.53125 -0.144531 2.683594 -0.203125 2.75 -0.28125 C 2.816406 -0.359375 2.851562 -0.546875 2.851562 -0.847656 L 2.851562 -2.496094 C 2.851562 -2.757812 2.808594 -2.96875 2.71875 -3.132812 C 2.632812 -3.296875 2.464844 -3.378906 2.222656 -3.378906 C 2.011719 -3.378906 1.804688 -3.300781 1.605469 -3.148438 C 1.410156 -2.996094 1.308594 -2.898438 1.308594 -2.851562 L 1.308594 -0.847656 C 1.308594 -0.542969 1.34375 -0.351562 1.414062 -0.277344 C 1.484375 -0.199219 1.636719 -0.144531 1.867188 -0.113281 L 1.867188 0 L 0.0742188 0 Z "/>
</g>
<g id="glyph-0-8">
<path d="M 1.289062 -3.769531 L 1.289062 -1.164062 C 1.289062 -0.980469 1.316406 -0.832031 1.367188 -0.71875 C 1.46875 -0.511719 1.652344 -0.410156 1.921875 -0.410156 C 2.105469 -0.410156 2.285156 -0.472656 2.460938 -0.59375 C 2.5625 -0.660156 2.664062 -0.753906 2.765625 -0.875 L 2.765625 -3.105469 C 2.765625 -3.3125 2.726562 -3.449219 2.644531 -3.515625 C 2.5625 -3.582031 2.402344 -3.621094 2.15625 -3.632812 L 2.15625 -3.769531 L 3.472656 -3.769531 L 3.472656 -0.902344 C 3.472656 -0.71875 3.503906 -0.59375 3.570312 -0.523438 C 3.636719 -0.453125 3.777344 -0.421875 3.992188 -0.429688 L 3.992188 -0.316406 C 3.84375 -0.277344 3.734375 -0.246094 3.660156 -0.226562 C 3.589844 -0.207031 3.472656 -0.167969 3.308594 -0.113281 C 3.238281 -0.0898438 3.082031 -0.03125 2.84375 0.0625 C 2.832031 0.0625 2.824219 0.0546875 2.820312 0.0429688 C 2.816406 0.03125 2.816406 0.015625 2.816406 0 L 2.816406 -0.65625 C 2.632812 -0.4375 2.464844 -0.273438 2.3125 -0.167969 C 2.082031 -0.00390625 1.835938 0.078125 1.578125 0.078125 C 1.34375 0.078125 1.121094 -0.0078125 0.910156 -0.175781 C 0.699219 -0.339844 0.59375 -0.617188 0.59375 -1.007812 L 0.59375 -3.121094 C 0.59375 -3.339844 0.546875 -3.484375 0.457031 -3.554688 C 0.394531 -3.601562 0.269531 -3.636719 0.0742188 -3.652344 L 0.0742188 -3.769531 Z "/>
</g>
<g id="glyph-0-9">
<path d="M 0.164062 -0.113281 C 0.449219 -0.128906 0.640625 -0.179688 0.730469 -0.273438 C 0.820312 -0.367188 0.867188 -0.566406 0.867188 -0.867188 L 0.867188 -3.480469 L 0.171875 -3.480469 L 0.171875 -3.75 L 0.867188 -3.75 C 0.867188 -4.179688 0.925781 -4.542969 1.042969 -4.835938 C 1.265625 -5.402344 1.671875 -5.6875 2.265625 -5.6875 C 2.503906 -5.6875 2.71875 -5.640625 2.90625 -5.546875 C 3.09375 -5.453125 3.191406 -5.324219 3.191406 -5.164062 C 3.191406 -5.074219 3.15625 -4.992188 3.09375 -4.921875 C 3.027344 -4.851562 2.949219 -4.816406 2.855469 -4.816406 C 2.777344 -4.816406 2.710938 -4.839844 2.652344 -4.890625 C 2.597656 -4.9375 2.527344 -5.019531 2.449219 -5.140625 L 2.378906 -5.246094 C 2.34375 -5.300781 2.296875 -5.351562 2.246094 -5.390625 C 2.195312 -5.429688 2.121094 -5.449219 2.03125 -5.449219 C 1.824219 -5.449219 1.683594 -5.347656 1.609375 -5.144531 C 1.570312 -5.035156 1.550781 -4.890625 1.550781 -4.714844 L 1.550781 -3.75 L 2.570312 -3.75 L 2.570312 -3.480469 L 1.558594 -3.480469 L 1.558594 -0.867188 C 1.558594 -0.558594 1.601562 -0.363281 1.683594 -0.277344 C 1.765625 -0.191406 1.980469 -0.136719 2.332031 -0.113281 L 2.332031 0 L 0.164062 0 Z "/>
</g>
<g id="glyph-0-10">
<path d="M 0.269531 -0.113281 C 0.527344 -0.15625 0.691406 -0.214844 0.753906 -0.285156 C 0.816406 -0.359375 0.847656 -0.554688 0.847656 -0.875 L 0.847656 -3.472656 L 0.269531 -3.472656 L 0.269531 -3.71875 L 0.855469 -3.71875 C 0.867188 -4.042969 0.890625 -4.285156 0.921875 -4.441406 C 0.972656 -4.695312 1.070312 -4.921875 1.210938 -5.117188 C 1.308594 -5.25 1.425781 -5.359375 1.5625 -5.453125 C 1.777344 -5.589844 2.015625 -5.660156 2.28125 -5.660156 C 2.457031 -5.660156 2.636719 -5.625 2.820312 -5.554688 C 3.003906 -5.484375 3.117188 -5.449219 3.160156 -5.449219 C 3.175781 -5.449219 3.195312 -5.449219 3.210938 -5.453125 C 3.226562 -5.457031 3.242188 -5.460938 3.257812 -5.464844 L 3.660156 -5.617188 C 3.683594 -5.625 3.703125 -5.632812 3.71875 -5.640625 C 3.734375 -5.644531 3.746094 -5.648438 3.757812 -5.652344 C 3.785156 -5.636719 3.800781 -5.621094 3.804688 -5.605469 C 3.808594 -5.59375 3.8125 -5.570312 3.808594 -5.535156 L 3.796875 -5.167969 L 3.796875 -0.671875 C 3.796875 -0.460938 3.828125 -0.320312 3.894531 -0.253906 C 3.960938 -0.183594 4.109375 -0.136719 4.335938 -0.113281 L 4.335938 0 L 2.542969 0 L 2.542969 -0.113281 C 2.75 -0.144531 2.886719 -0.183594 2.949219 -0.234375 C 3.054688 -0.316406 3.105469 -0.472656 3.105469 -0.703125 L 3.105469 -3.472656 L 1.53125 -3.472656 L 1.53125 -0.65625 C 1.53125 -0.480469 1.570312 -0.347656 1.652344 -0.265625 C 1.734375 -0.183594 1.890625 -0.132812 2.128906 -0.113281 L 2.128906 0 L 0.269531 0 Z M 3.105469 -4.886719 C 3.085938 -4.871094 3.066406 -4.859375 3.046875 -4.851562 C 3.027344 -4.84375 2.996094 -4.835938 2.953125 -4.835938 C 2.789062 -4.835938 2.648438 -4.9375 2.523438 -5.132812 C 2.402344 -5.328125 2.265625 -5.429688 2.117188 -5.429688 C 1.855469 -5.429688 1.6875 -5.269531 1.617188 -4.957031 C 1.566406 -4.757812 1.542969 -4.34375 1.542969 -3.71875 L 3.105469 -3.71875 Z "/>
</g>
<g id="glyph-0-11">
<path d="M 2.667969 -3.457031 C 2.9375 -3.605469 3.140625 -3.746094 3.277344 -3.878906 C 3.519531 -4.109375 3.640625 -4.367188 3.640625 -4.652344 C 3.640625 -4.863281 3.578125 -5.03125 3.457031 -5.164062 C 3.332031 -5.292969 3.175781 -5.359375 2.988281 -5.359375 C 2.78125 -5.359375 2.621094 -5.292969 2.507812 -5.160156 C 2.394531 -5.027344 2.339844 -4.851562 2.339844 -4.628906 C 2.339844 -4.457031 2.371094 -4.273438 2.429688 -4.074219 C 2.492188 -3.875 2.570312 -3.671875 2.667969 -3.457031 Z M 2.1875 -0.324219 C 2.339844 -0.324219 2.527344 -0.367188 2.742188 -0.457031 C 2.960938 -0.542969 3.167969 -0.679688 3.363281 -0.867188 C 3.109375 -1.191406 2.910156 -1.464844 2.769531 -1.6875 C 2.625 -1.910156 2.402344 -2.300781 2.097656 -2.851562 C 1.820312 -2.6875 1.605469 -2.519531 1.457031 -2.355469 C 1.230469 -2.101562 1.113281 -1.804688 1.113281 -1.46875 C 1.113281 -1.160156 1.214844 -0.890625 1.414062 -0.664062 C 1.617188 -0.4375 1.875 -0.324219 2.1875 -0.324219 Z M 1.972656 -3.140625 C 1.9375 -3.214844 1.898438 -3.316406 1.851562 -3.441406 C 1.804688 -3.570312 1.773438 -3.671875 1.753906 -3.75 C 1.730469 -3.835938 1.714844 -3.925781 1.699219 -4.015625 C 1.6875 -4.101562 1.679688 -4.1875 1.679688 -4.273438 C 1.679688 -4.664062 1.800781 -4.988281 2.039062 -5.246094 C 2.277344 -5.503906 2.578125 -5.632812 2.945312 -5.632812 C 3.28125 -5.632812 3.554688 -5.539062 3.769531 -5.359375 C 3.984375 -5.175781 4.089844 -4.933594 4.089844 -4.625 C 4.089844 -4.269531 3.953125 -3.976562 3.679688 -3.746094 C 3.40625 -3.519531 3.109375 -3.335938 2.796875 -3.199219 C 3.035156 -2.765625 3.210938 -2.457031 3.320312 -2.277344 C 3.433594 -2.097656 3.625 -1.835938 3.894531 -1.484375 C 4.179688 -1.835938 4.378906 -2.140625 4.492188 -2.386719 C 4.601562 -2.636719 4.660156 -2.835938 4.660156 -2.988281 C 4.660156 -3.140625 4.601562 -3.242188 4.492188 -3.300781 C 4.421875 -3.335938 4.300781 -3.359375 4.125 -3.375 L 4.125 -3.546875 L 5.921875 -3.546875 L 5.921875 -3.375 C 5.738281 -3.351562 5.601562 -3.320312 5.511719 -3.277344 C 5.367188 -3.203125 5.242188 -3.070312 5.140625 -2.878906 L 4.925781 -2.496094 C 4.773438 -2.21875 4.648438 -2.007812 4.546875 -1.859375 C 4.445312 -1.714844 4.292969 -1.511719 4.089844 -1.253906 C 4.199219 -1.125 4.320312 -0.996094 4.460938 -0.867188 C 4.761719 -0.609375 5.0625 -0.480469 5.363281 -0.480469 C 5.542969 -0.480469 5.695312 -0.523438 5.820312 -0.609375 C 5.894531 -0.664062 5.996094 -0.769531 6.125 -0.921875 L 6.246094 -0.824219 C 6.230469 -0.761719 6.171875 -0.660156 6.074219 -0.519531 C 5.976562 -0.378906 5.882812 -0.269531 5.792969 -0.191406 C 5.652344 -0.0664062 5.488281 0.0234375 5.300781 0.0742188 C 5.191406 0.105469 5.082031 0.121094 4.976562 0.121094 C 4.714844 0.121094 4.453125 0.0390625 4.195312 -0.125 C 4.039062 -0.222656 3.835938 -0.394531 3.578125 -0.644531 C 3.332031 -0.417969 3.085938 -0.246094 2.835938 -0.125 C 2.511719 0.0351562 2.152344 0.117188 1.761719 0.117188 C 1.328125 0.117188 0.980469 0.00390625 0.722656 -0.230469 C 0.464844 -0.460938 0.332031 -0.777344 0.332031 -1.179688 C 0.332031 -1.558594 0.449219 -1.886719 0.679688 -2.175781 C 0.914062 -2.460938 1.238281 -2.722656 1.65625 -2.957031 Z "/>
</g>
<g id="glyph-0-12">
<path d="M 0.210938 -1.886719 C 0.210938 -2.425781 0.382812 -2.882812 0.726562 -3.257812 C 1.070312 -3.628906 1.511719 -3.816406 2.050781 -3.816406 C 2.585938 -3.816406 3.03125 -3.640625 3.386719 -3.289062 C 3.738281 -2.933594 3.914062 -2.464844 3.914062 -1.878906 C 3.914062 -1.339844 3.742188 -0.871094 3.402344 -0.472656 C 3.058594 -0.0742188 2.617188 0.125 2.074219 0.125 C 1.554688 0.125 1.113281 -0.0664062 0.753906 -0.449219 C 0.390625 -0.832031 0.210938 -1.308594 0.210938 -1.886719 Z M 1.9375 -3.574219 C 1.722656 -3.574219 1.535156 -3.5 1.378906 -3.359375 C 1.109375 -3.113281 0.972656 -2.6875 0.972656 -2.082031 C 0.972656 -1.601562 1.082031 -1.148438 1.300781 -0.730469 C 1.519531 -0.3125 1.820312 -0.105469 2.210938 -0.105469 C 2.515625 -0.105469 2.746094 -0.246094 2.910156 -0.523438 C 3.074219 -0.804688 3.15625 -1.171875 3.15625 -1.625 C 3.15625 -2.09375 3.054688 -2.535156 2.84375 -2.949219 C 2.636719 -3.363281 2.332031 -3.574219 1.9375 -3.574219 Z "/>
</g>
<g id="glyph-0-13">
<path d="M 0.0351562 -0.132812 C 0.285156 -0.15625 0.453125 -0.199219 0.53125 -0.265625 C 0.613281 -0.332031 0.65625 -0.476562 0.65625 -0.691406 L 0.65625 -2.527344 C 0.65625 -2.796875 0.628906 -2.988281 0.578125 -3.101562 C 0.527344 -3.21875 0.4375 -3.277344 0.304688 -3.277344 C 0.277344 -3.277344 0.242188 -3.273438 0.199219 -3.265625 C 0.152344 -3.257812 0.105469 -3.25 0.0585938 -3.238281 L 0.0585938 -3.375 C 0.210938 -3.429688 0.371094 -3.484375 0.53125 -3.539062 C 0.695312 -3.597656 0.808594 -3.636719 0.871094 -3.660156 C 1.007812 -3.714844 1.144531 -3.773438 1.289062 -3.835938 C 1.308594 -3.835938 1.320312 -3.832031 1.324219 -3.816406 C 1.328125 -3.804688 1.332031 -3.773438 1.332031 -3.730469 L 1.332031 -3.0625 C 1.503906 -3.304688 1.671875 -3.492188 1.832031 -3.628906 C 1.992188 -3.765625 2.160156 -3.832031 2.335938 -3.832031 C 2.472656 -3.832031 2.585938 -3.792969 2.671875 -3.707031 C 2.757812 -3.625 2.804688 -3.523438 2.804688 -3.398438 C 2.804688 -3.285156 2.769531 -3.191406 2.703125 -3.117188 C 2.636719 -3.039062 2.554688 -3.003906 2.453125 -3.003906 C 2.351562 -3.003906 2.246094 -3.050781 2.140625 -3.144531 C 2.039062 -3.238281 1.957031 -3.289062 1.894531 -3.289062 C 1.800781 -3.289062 1.683594 -3.210938 1.546875 -3.058594 C 1.40625 -2.90625 1.339844 -2.746094 1.339844 -2.582031 L 1.339844 -0.75 C 1.339844 -0.515625 1.394531 -0.351562 1.5 -0.261719 C 1.609375 -0.171875 1.789062 -0.128906 2.042969 -0.132812 L 2.042969 0 L 0.0351562 0 Z "/>
</g>
</g>
<image id="source-56" x="0" y="0" width="0" height="0"/>
<mask id="mask-0">
<use xlink:href="#source-56"/>
</mask>
</defs>
<g fill="rgb(96.862745%, 85.098039%, 43.529412%)" fill-opacity="1">
<use xlink:href="#glyph-0-0" x="30" y="26.25"/>
<use xlink:href="#glyph-0-1" x="35" y="26.25"/>
<use xlink:href="#glyph-0-2" x="37" y="26.25"/>
<use xlink:href="#glyph-0-3" x="41" y="26.25"/>
<use xlink:href="#glyph-0-4" x="45" y="26.25"/>
<use xlink:href="#glyph-0-5" x="47" y="26.25"/>
<use xlink:href="#glyph-0-4" x="51" y="26.25"/>
<use xlink:href="#glyph-0-6" x="53" y="26.25"/>
<use xlink:href="#glyph-0-4" x="61" y="26.25"/>
<use xlink:href="#glyph-0-0" x="63" y="26.25"/>
<use xlink:href="#glyph-0-7" x="68" y="26.25"/>
<use xlink:href="#glyph-0-8" x="72" y="26.25"/>
<use xlink:href="#glyph-0-9" x="76" y="26.25"/>
<use xlink:href="#glyph-0-10" x="79" y="26.25"/>
<use xlink:href="#glyph-0-2" x="84" y="26.25"/>
<use xlink:href="#glyph-0-4" x="88" y="26.25"/>
<use xlink:href="#glyph-0-11" x="90" y="26.25"/>
<use xlink:href="#glyph-0-4" x="96" y="26.25"/>
<use xlink:href="#glyph-0-0" x="98" y="26.25"/>
<use xlink:href="#glyph-0-12" x="103" y="26.25"/>
<use xlink:href="#glyph-0-13" x="107" y="26.25"/>
<use xlink:href="#glyph-0-1" x="110" y="26.25"/>
</g>
</svg>
