<?xml version="1.0" encoding="UTF-8"?>
<svg xmlns="http://www.w3.org/2000/svg" xmlns:xlink="http://www.w3.org/1999/xlink" width="1280" height="720" viewBox="0 0 1280 720">
<defs>
<g>
<g id="glyph-0-0">
<path d="M 0.332031 -0.125 C 1.65625 -1.5 2.554688 -2.507812 3.027344 -3.152344 C 3.5 -3.796875 3.738281 -4.421875 3.738281 -5.035156 C 3.738281 -5.570312 3.59375 -5.976562 3.304688 -6.257812 C 3.015625 -6.539062 2.667969 -6.679688 2.269531 -6.679688 C 1.773438 -6.679688 1.371094 -6.496094 1.0625 -6.136719 C 0.894531 -5.9375 0.730469 -5.632812 0.574219 -5.21875 L 0.339844 -5.269531 C 0.523438 -6.101562 0.828125 -6.675781 1.261719 -7 C 1.695312 -7.324219 2.15625 -7.488281 2.652344 -7.488281 C 3.265625 -7.488281 3.757812 -7.292969 4.136719 -6.910156 C 4.515625 -6.523438 4.703125 -6.050781 4.703125 -5.496094 C 4.703125 -4.902344 4.5 -4.332031 4.089844 -3.78125 C 3.679688 -3.230469 2.792969 -2.253906 1.425781 -0.847656 L 3.917969 -0.847656 C 4.265625 -0.847656 4.507812 -0.886719 4.648438 -0.972656 C 4.789062 -1.054688 4.949219 -1.257812 5.125 -1.578125 L 5.269531 -1.511719 L 4.664062 0 L 0.332031 0 Z "/>
</g>
<g id="glyph-0-1">
<path d="M 1.8125 0.128906 C 1.636719 0.128906 1.492188 0.0703125 1.371094 -0.0507812 C 1.253906 -0.171875 1.195312 -0.316406 1.195312 -0.488281 C 1.195312 -0.660156 1.253906 -0.804688 1.375 -0.921875 C 1.496094 -1.042969 1.640625 -1.101562 1.8125 -1.101562 C 1.980469 -1.101562 2.125 -1.042969 2.246094 -0.921875 C 2.367188 -0.804688 2.425781 -0.660156 2.425781 -0.488281 C 2.425781 -0.316406 2.367188 -0.171875 2.25 -0.0507812 C 2.132812 0.0703125 1.984375 0.128906 1.8125 0.128906 Z "/>
</g>
<g id="glyph-0-2">
<rect x="0" y="0" width="0" height="0" mask="url(#mask-0)"/>
</g>
<g id="glyph-0-3">
<path d="M 0.125 -0.199219 C 0.585938 -0.246094 0.878906 -0.351562 1.007812 -0.511719 C 1.140625 -0.671875 1.203125 -1.046875 1.203125 -1.632812 L 1.203125 -6.148438 C 1.203125 -6.546875 1.140625 -6.808594 1.015625 -6.929688 C 0.886719 -7.050781 0.601562 -7.121094 0.152344 -7.144531 L 0.152344 -7.351562 L 2.347656 -7.351562 L 4.921875 -1.746094 L 7.378906 -7.351562 L 9.589844 -7.351562 L 9.589844 -7.144531 C 9.179688 -7.117188 8.914062 -7.039062 8.792969 -6.917969 C 8.675781 -6.796875 8.613281 -6.539062 8.613281 -6.148438 L 8.613281 -1.203125 C 8.613281 -0.800781 8.675781 -0.539062 8.792969 -0.425781 C 8.914062 -0.3125 9.179688 -0.238281 9.589844 -0.199219 L 9.589844 0 L 6.476562 0 L 6.476562 -0.199219 C 6.925781 -0.238281 7.207031 -0.316406 7.316406 -0.441406 C 7.425781 -0.566406 7.480469 -0.863281 7.480469 -1.335938 L 7.480469 -6.324219 L 4.636719 0 L 4.488281 0 L 1.691406 -6.066406 L 1.691406 -1.632812 C 1.691406 -1.023438 1.78125 -0.628906 1.957031 -0.445312 C 2.074219 -0.324219 2.332031 -0.242188 2.734375 -0.199219 L 2.734375 0 L 0.125 0 Z "/>
</g>
<g id="glyph-0-4">
<path d="M 3.183594 -3.003906 C 2.769531 -2.867188 2.425781 -2.714844 2.152344 -2.550781 C 1.632812 -2.226562 1.371094 -1.863281 1.371094 -1.453125 C 1.371094 -1.125 1.480469 -0.882812 1.699219 -0.726562 C 1.839844 -0.625 1.996094 -0.574219 2.171875 -0.574219 C 2.410156 -0.574219 2.636719 -0.640625 2.855469 -0.777344 C 3.074219 -0.910156 3.183594 -1.078125 3.183594 -1.285156 Z M 0.40625 -1.078125 C 0.40625 -1.601562 0.667969 -2.042969 1.195312 -2.390625 C 1.527344 -2.609375 2.191406 -2.902344 3.183594 -3.277344 L 3.183594 -3.738281 C 3.183594 -4.105469 3.148438 -4.363281 3.074219 -4.507812 C 2.953125 -4.75 2.699219 -4.871094 2.3125 -4.871094 C 2.128906 -4.871094 1.953125 -4.824219 1.785156 -4.730469 C 1.617188 -4.632812 1.535156 -4.5 1.535156 -4.328125 C 1.535156 -4.285156 1.542969 -4.210938 1.5625 -4.109375 C 1.582031 -4.007812 1.589844 -3.941406 1.589844 -3.910156 C 1.589844 -3.707031 1.523438 -3.566406 1.390625 -3.488281 C 1.3125 -3.441406 1.222656 -3.417969 1.117188 -3.417969 C 0.953125 -3.417969 0.828125 -3.472656 0.742188 -3.578125 C 0.65625 -3.683594 0.613281 -3.804688 0.613281 -3.933594 C 0.613281 -4.1875 0.769531 -4.453125 1.082031 -4.726562 C 1.394531 -5.003906 1.855469 -5.144531 2.457031 -5.144531 C 3.160156 -5.144531 3.632812 -4.914062 3.882812 -4.460938 C 4.019531 -4.210938 4.085938 -3.847656 4.085938 -3.367188 L 4.085938 -1.195312 C 4.085938 -0.984375 4.097656 -0.839844 4.128906 -0.757812 C 4.175781 -0.617188 4.273438 -0.546875 4.421875 -0.546875 C 4.503906 -0.546875 4.574219 -0.5625 4.628906 -0.585938 C 4.683594 -0.609375 4.777344 -0.671875 4.910156 -0.769531 L 4.910156 -0.488281 C 4.792969 -0.347656 4.667969 -0.230469 4.535156 -0.140625 C 4.332031 -0.00390625 4.125 0.0664062 3.917969 0.0664062 C 3.671875 0.0664062 3.492188 -0.015625 3.382812 -0.171875 C 3.273438 -0.332031 3.210938 -0.523438 3.199219 -0.742188 C 2.925781 -0.503906 2.691406 -0.328125 2.496094 -0.210938 C 2.167969 -0.015625 1.855469 0.0820312 1.558594 0.0820312 C 1.246094 0.0820312 0.976562 -0.0273438 0.75 -0.246094 C 0.519531 -0.464844 0.40625 -0.742188 0.40625 -1.078125 Z "/>
</g>
<g id="glyph-0-5">
<path d="M 1.773438 -1 C 1.867188 -0.753906 2.007812 -0.570312 2.195312 -0.449219 C 2.382812 -0.328125 2.601562 -0.265625 2.855469 -0.265625 C 3.246094 -0.265625 3.578125 -0.460938 3.855469 -0.847656 C 4.132812 -1.238281 4.269531 -1.78125 4.269531 -2.472656 C 4.269531 -3.140625 4.125 -3.636719 3.839844 -3.964844 C 3.550781 -4.292969 3.21875 -4.460938 2.835938 -4.460938 C 2.570312 -4.460938 2.324219 -4.378906 2.105469 -4.210938 C 1.882812 -4.046875 1.773438 -3.886719 1.773438 -3.726562 Z M 0.046875 2.242188 C 0.386719 2.21875 0.605469 2.144531 0.695312 2.023438 C 0.789062 1.902344 0.835938 1.707031 0.835938 1.441406 L 0.835938 -3.765625 C 0.835938 -4.039062 0.800781 -4.214844 0.734375 -4.292969 C 0.667969 -4.371094 0.542969 -4.410156 0.359375 -4.410156 C 0.320312 -4.410156 0.28125 -4.410156 0.246094 -4.40625 C 0.210938 -4.402344 0.164062 -4.394531 0.0976562 -4.382812 L 0.0976562 -4.5625 L 0.613281 -4.730469 C 0.632812 -4.734375 0.996094 -4.859375 1.703125 -5.105469 C 1.722656 -5.105469 1.734375 -5.097656 1.742188 -5.082031 C 1.753906 -5.066406 1.757812 -5.046875 1.757812 -5.023438 L 1.757812 -4.292969 C 1.996094 -4.53125 2.207031 -4.707031 2.386719 -4.824219 C 2.710938 -5.027344 3.046875 -5.125 3.390625 -5.125 C 3.890625 -5.125 4.320312 -4.914062 4.679688 -4.488281 C 5.039062 -4.0625 5.21875 -3.484375 5.21875 -2.746094 C 5.21875 -2.023438 5.003906 -1.367188 4.570312 -0.777344 C 4.136719 -0.1875 3.59375 0.109375 2.941406 0.109375 C 2.738281 0.109375 2.5625 0.0820312 2.414062 0.03125 C 2.183594 -0.0429688 1.96875 -0.183594 1.773438 -0.386719 L 1.773438 1.390625 C 1.773438 1.753906 1.832031 1.976562 1.953125 2.0625 C 2.074219 2.144531 2.332031 2.199219 2.734375 2.230469 L 2.734375 2.417969 L 0.046875 2.417969 Z "/>
</g>
<g id="glyph-0-6">
<path d="M 4.804688 -5.332031 C 4.804688 -6.011719 4.511719 -6.480469 3.925781 -6.730469 C 3.613281 -6.871094 3.214844 -6.9375 2.734375 -6.9375 C 2.507812 -6.9375 2.367188 -6.914062 2.3125 -6.871094 C 2.261719 -6.824219 2.234375 -6.726562 2.234375 -6.570312 L 2.234375 -3.671875 C 2.433594 -3.65625 2.5625 -3.644531 2.625 -3.640625 C 2.6875 -3.636719 2.746094 -3.632812 2.804688 -3.632812 C 3.316406 -3.632812 3.714844 -3.707031 4.007812 -3.851562 C 4.539062 -4.117188 4.804688 -4.609375 4.804688 -5.332031 Z M 0.179688 -0.199219 C 0.601562 -0.238281 0.867188 -0.324219 0.972656 -0.453125 C 1.078125 -0.582031 1.128906 -0.875 1.128906 -1.335938 L 1.128906 -6.148438 C 1.128906 -6.535156 1.070312 -6.789062 0.953125 -6.910156 C 0.835938 -7.035156 0.578125 -7.113281 0.179688 -7.144531 L 0.179688 -7.351562 L 3.109375 -7.351562 C 4.050781 -7.351562 4.769531 -7.167969 5.269531 -6.804688 C 5.765625 -6.4375 6.015625 -5.957031 6.015625 -5.359375 C 6.015625 -4.605469 5.738281 -4.054688 5.1875 -3.714844 C 4.632812 -3.375 3.941406 -3.207031 3.109375 -3.207031 C 2.988281 -3.207031 2.835938 -3.207031 2.648438 -3.214844 C 2.464844 -3.21875 2.324219 -3.222656 2.234375 -3.222656 L 2.234375 -1.203125 C 2.234375 -0.785156 2.300781 -0.519531 2.425781 -0.414062 C 2.554688 -0.304688 2.84375 -0.234375 3.289062 -0.199219 L 3.289062 0 L 0.179688 0 Z "/>
</g>
<g id="glyph-0-7">
<path d="M 0.0976562 -0.152344 C 0.394531 -0.191406 0.589844 -0.265625 0.679688 -0.371094 C 0.773438 -0.476562 0.820312 -0.730469 0.820312 -1.128906 L 0.820312 -6.335938 C 0.820312 -6.539062 0.792969 -6.6875 0.742188 -6.785156 C 0.6875 -6.878906 0.5625 -6.925781 0.359375 -6.925781 C 0.320312 -6.925781 0.28125 -6.925781 0.242188 -6.917969 C 0.203125 -6.914062 0.160156 -6.90625 0.113281 -6.902344 L 0.113281 -7.097656 C 0.273438 -7.144531 0.46875 -7.199219 0.703125 -7.265625 C 0.9375 -7.332031 1.097656 -7.382812 1.1875 -7.410156 L 1.707031 -7.574219 L 1.71875 -7.535156 L 1.71875 -4.203125 C 1.945312 -4.464844 2.148438 -4.65625 2.328125 -4.78125 C 2.644531 -4.996094 2.988281 -5.105469 3.359375 -5.105469 C 3.945312 -5.105469 4.34375 -4.859375 4.558594 -4.367188 C 4.671875 -4.105469 4.730469 -3.765625 4.730469 -3.339844 L 4.730469 -1.128906 C 4.730469 -0.746094 4.773438 -0.496094 4.863281 -0.378906 C 4.953125 -0.265625 5.132812 -0.1875 5.410156 -0.152344 L 5.410156 0 L 3.058594 0 L 3.058594 -0.152344 C 3.375 -0.195312 3.578125 -0.269531 3.667969 -0.375 C 3.757812 -0.480469 3.804688 -0.730469 3.804688 -1.128906 L 3.804688 -3.324219 C 3.804688 -3.675781 3.742188 -3.960938 3.625 -4.175781 C 3.507812 -4.394531 3.289062 -4.503906 2.960938 -4.503906 C 2.679688 -4.503906 2.40625 -4.402344 2.144531 -4.199219 C 1.878906 -3.996094 1.746094 -3.863281 1.746094 -3.804688 L 1.746094 -1.128906 C 1.746094 -0.722656 1.792969 -0.46875 1.886719 -0.367188 C 1.980469 -0.265625 2.183594 -0.195312 2.488281 -0.152344 L 2.488281 0 L 0.0976562 0 Z "/>
</g>
<g id="glyph-0-8">
<path d="M 0.574219 -1.707031 L 0.753906 -1.707031 C 0.835938 -1.296875 0.949219 -0.980469 1.089844 -0.757812 C 1.34375 -0.355469 1.714844 -0.152344 2.203125 -0.152344 C 2.472656 -0.152344 2.6875 -0.226562 2.84375 -0.378906 C 3.003906 -0.527344 3.082031 -0.722656 3.082031 -0.960938 C 3.082031 -1.113281 3.035156 -1.257812 2.945312 -1.398438 C 2.855469 -1.539062 2.695312 -1.679688 2.46875 -1.8125 L 1.859375 -2.160156 C 1.414062 -2.398438 1.089844 -2.636719 0.878906 -2.878906 C 0.667969 -3.121094 0.5625 -3.410156 0.5625 -3.738281 C 0.5625 -4.144531 0.707031 -4.476562 1 -4.734375 C 1.289062 -4.996094 1.652344 -5.125 2.089844 -5.125 C 2.28125 -5.125 2.492188 -5.089844 2.71875 -5.019531 C 2.949219 -4.945312 3.078125 -4.910156 3.109375 -4.910156 C 3.175781 -4.910156 3.21875 -4.917969 3.25 -4.9375 C 3.277344 -4.953125 3.304688 -4.984375 3.324219 -5.023438 L 3.457031 -5.023438 L 3.492188 -3.511719 L 3.324219 -3.511719 C 3.253906 -3.863281 3.15625 -4.132812 3.03125 -4.328125 C 2.808594 -4.691406 2.484375 -4.871094 2.0625 -4.871094 C 1.808594 -4.871094 1.609375 -4.792969 1.464844 -4.636719 C 1.320312 -4.480469 1.246094 -4.300781 1.246094 -4.089844 C 1.246094 -3.757812 1.496094 -3.460938 1.996094 -3.199219 L 2.710938 -2.816406 C 3.480469 -2.394531 3.867188 -1.90625 3.867188 -1.351562 C 3.867188 -0.925781 3.707031 -0.574219 3.386719 -0.304688 C 3.066406 -0.03125 2.648438 0.101562 2.132812 0.101562 C 1.914062 0.101562 1.667969 0.0664062 1.394531 -0.00390625 C 1.121094 -0.078125 0.957031 -0.113281 0.90625 -0.113281 C 0.863281 -0.113281 0.824219 -0.0976562 0.792969 -0.0664062 C 0.761719 -0.0351562 0.734375 0 0.714844 0.0429688 L 0.574219 0.0429688 Z "/>
</g>
<g id="glyph-0-9">
<path d="M 2.542969 -5.089844 C 3.054688 -5.089844 3.5 -4.914062 3.882812 -4.558594 C 4.265625 -4.207031 4.460938 -3.707031 4.460938 -3.058594 L 1.015625 -3.058594 C 1.050781 -2.21875 1.242188 -1.609375 1.585938 -1.226562 C 1.929688 -0.84375 2.335938 -0.652344 2.804688 -0.652344 C 3.183594 -0.652344 3.503906 -0.75 3.765625 -0.949219 C 4.027344 -1.148438 4.265625 -1.429688 4.488281 -1.796875 L 4.675781 -1.730469 C 4.527344 -1.269531 4.25 -0.847656 3.84375 -0.457031 C 3.4375 -0.0664062 2.9375 0.128906 2.347656 0.128906 C 1.667969 0.128906 1.144531 -0.125 0.773438 -0.640625 C 0.402344 -1.152344 0.21875 -1.746094 0.21875 -2.414062 C 0.21875 -3.140625 0.433594 -3.769531 0.863281 -4.296875 C 1.292969 -4.824219 1.855469 -5.089844 2.542969 -5.089844 Z M 2.230469 -4.691406 C 1.816406 -4.691406 1.503906 -4.511719 1.285156 -4.144531 C 1.167969 -3.949219 1.085938 -3.703125 1.035156 -3.40625 L 3.324219 -3.40625 C 3.285156 -3.769531 3.21875 -4.039062 3.121094 -4.214844 C 2.941406 -4.535156 2.644531 -4.691406 2.230469 -4.691406 Z "/>
</g>
</g>
<image id="source-32" x="0" y="0" width="0" height="0"/>
<mask id="mask-0">
<use xlink:href="#source-32"/>
</mask>
</defs>
<g fill="rgb(96.862745%, 85.098039%, 43.529412%)" fill-opacity="1">
<use xlink:href="#glyph-0-0" x="30" y="28.333008"/>
<use xlink:href="#glyph-0-1" x="36" y="28.333008"/>
<use xlink:href="#glyph-0-2" x="39" y="28.333008"/>
<use xlink:href="#glyph-0-3" x="42" y="28.333008"/>
<use xlink:href="#glyph-0-4" x="52" y="28.333008"/>
<use xlink:href="#glyph-0-5" x="57" y="28.333008"/>
<use xlink:href="#glyph-0-2" x="63" y="28.333008"/>
<use xlink:href="#glyph-0-6" x="66" y="28.333008"/>
<use xlink:href="#glyph-0-7" x="72" y="28.333008"/>
<use xlink:href="#glyph-0-4" x="78" y="28.333008"/>
<use xlink:href="#glyph-0-8" x="83" y="28.333008"/>
<use xlink:href="#glyph-0-9" x="87" y="28.333008"/>
</g>
</svg>
