<?xml version="1.0" encoding="UTF-8"?>
<svg xmlns="http://www.w3.org/2000/svg" xmlns:xlink="http://www.w3.org/1999/xlink" width="1280" height="720" viewBox="0 0 1280 720">
<defs>
<g>
<g id="glyph-0-0">
<path d="M 0.671875 -5.253906 C 0.792969 -5.253906 0.867188 -5.222656 0.90625 -5.160156 C 0.941406 -5.09375 0.960938 -5.007812 0.960938 -4.894531 C 0.960938 -4.878906 0.960938 -4.859375 0.957031 -4.84375 C 0.957031 -4.824219 0.953125 -4.773438 0.941406 -4.6875 L 0.753906 -3.015625 L 0.617188 -3.015625 L 0.421875 -4.5625 C 0.414062 -4.625 0.40625 -4.6875 0.402344 -4.746094 C 0.394531 -4.808594 0.390625 -4.871094 0.390625 -4.933594 C 0.390625 -5.011719 0.410156 -5.085938 0.441406 -5.152344 C 0.476562 -5.222656 0.554688 -5.253906 0.671875 -5.253906 Z "/>
</g>
<g id="glyph-0-1">
<path d="M 2.878906 -5.238281 C 3.160156 -5.238281 3.449219 -5.195312 3.746094 -5.113281 C 4.042969 -5.027344 4.207031 -4.984375 4.242188 -4.984375 C 4.316406 -4.984375 4.386719 -5.007812 4.449219 -5.046875 C 4.515625 -5.085938 4.5625 -5.152344 4.585938 -5.238281 L 4.75 -5.238281 L 4.824219 -3.488281 L 4.644531 -3.488281 C 4.539062 -3.835938 4.40625 -4.117188 4.238281 -4.328125 C 3.917969 -4.730469 3.488281 -4.929688 2.949219 -4.929688 C 2.40625 -4.929688 1.960938 -4.714844 1.617188 -4.285156 C 1.269531 -3.855469 1.097656 -3.261719 1.097656 -2.507812 C 1.097656 -1.8125 1.277344 -1.257812 1.640625 -0.84375 C 2.003906 -0.429688 2.464844 -0.222656 3.023438 -0.222656 C 3.425781 -0.222656 3.796875 -0.320312 4.136719 -0.511719 C 4.332031 -0.621094 4.542969 -0.785156 4.777344 -1.007812 L 4.921875 -0.863281 C 4.75 -0.644531 4.535156 -0.453125 4.28125 -0.289062 C 3.84375 -0.0117188 3.371094 0.128906 2.863281 0.128906 C 2.027344 0.128906 1.363281 -0.136719 0.875 -0.671875 C 0.421875 -1.164062 0.195312 -1.78125 0.195312 -2.523438 C 0.195312 -3.277344 0.433594 -3.914062 0.910156 -4.429688 C 1.414062 -4.96875 2.070312 -5.238281 2.878906 -5.238281 Z "/>
</g>
<g id="glyph-0-2">
<path d="M 0.0351562 -0.125 C 0.265625 -0.144531 0.421875 -0.1875 0.496094 -0.25 C 0.574219 -0.3125 0.613281 -0.441406 0.613281 -0.644531 L 0.613281 -2.359375 C 0.613281 -2.609375 0.589844 -2.789062 0.542969 -2.894531 C 0.496094 -3.003906 0.410156 -3.058594 0.285156 -3.058594 C 0.257812 -3.058594 0.226562 -3.054688 0.183594 -3.046875 C 0.140625 -3.039062 0.0976562 -3.03125 0.0546875 -3.023438 L 0.0546875 -3.148438 C 0.199219 -3.199219 0.34375 -3.25 0.496094 -3.304688 C 0.648438 -3.355469 0.753906 -3.394531 0.8125 -3.417969 C 0.9375 -3.464844 1.070312 -3.519531 1.203125 -3.582031 C 1.222656 -3.582031 1.230469 -3.574219 1.234375 -3.5625 C 1.238281 -3.550781 1.242188 -3.523438 1.242188 -3.480469 L 1.242188 -2.859375 C 1.402344 -3.085938 1.558594 -3.261719 1.710938 -3.386719 C 1.863281 -3.515625 2.019531 -3.578125 2.179688 -3.578125 C 2.308594 -3.578125 2.414062 -3.539062 2.496094 -3.460938 C 2.578125 -3.382812 2.617188 -3.289062 2.617188 -3.171875 C 2.617188 -3.066406 2.585938 -2.980469 2.523438 -2.910156 C 2.460938 -2.839844 2.382812 -2.800781 2.289062 -2.800781 C 2.195312 -2.800781 2.097656 -2.847656 2 -2.933594 C 1.902344 -3.023438 1.824219 -3.070312 1.769531 -3.070312 C 1.679688 -3.070312 1.570312 -2.996094 1.441406 -2.855469 C 1.3125 -2.710938 1.25 -2.5625 1.25 -2.410156 L 1.25 -0.699219 C 1.25 -0.480469 1.300781 -0.328125 1.402344 -0.246094 C 1.503906 -0.160156 1.671875 -0.121094 1.90625 -0.125 L 1.90625 0 L 0.0351562 0 Z "/>
</g>
<g id="glyph-0-3">
<path d="M 1.78125 -3.5625 C 2.136719 -3.5625 2.449219 -3.4375 2.71875 -3.191406 C 2.988281 -2.945312 3.121094 -2.59375 3.121094 -2.140625 L 0.710938 -2.140625 C 0.734375 -1.554688 0.867188 -1.125 1.109375 -0.859375 C 1.347656 -0.589844 1.632812 -0.457031 1.964844 -0.457031 C 2.230469 -0.457031 2.453125 -0.523438 2.636719 -0.664062 C 2.816406 -0.804688 2.984375 -1 3.140625 -1.257812 L 3.273438 -1.210938 C 3.167969 -0.890625 2.976562 -0.59375 2.691406 -0.320312 C 2.40625 -0.046875 2.058594 0.0898438 1.644531 0.0898438 C 1.167969 0.0898438 0.800781 -0.0898438 0.542969 -0.449219 C 0.28125 -0.808594 0.152344 -1.222656 0.152344 -1.691406 C 0.152344 -2.199219 0.300781 -2.636719 0.605469 -3.007812 C 0.90625 -3.378906 1.296875 -3.5625 1.78125 -3.5625 Z M 1.5625 -3.285156 C 1.273438 -3.285156 1.050781 -3.15625 0.898438 -2.902344 C 0.820312 -2.765625 0.761719 -2.59375 0.726562 -2.386719 L 2.328125 -2.386719 C 2.300781 -2.636719 2.25 -2.828125 2.183594 -2.949219 C 2.058594 -3.171875 1.851562 -3.285156 1.5625 -3.285156 Z "/>
</g>
<g id="glyph-0-4">
<path d="M 2.230469 -2.105469 C 1.9375 -2.007812 1.699219 -1.902344 1.507812 -1.785156 C 1.144531 -1.558594 0.960938 -1.304688 0.960938 -1.019531 C 0.960938 -0.789062 1.035156 -0.617188 1.1875 -0.507812 C 1.285156 -0.4375 1.398438 -0.402344 1.519531 -0.402344 C 1.6875 -0.402344 1.847656 -0.449219 2 -0.542969 C 2.152344 -0.636719 2.230469 -0.753906 2.230469 -0.898438 Z M 0.285156 -0.753906 C 0.285156 -1.121094 0.46875 -1.429688 0.835938 -1.675781 C 1.070312 -1.828125 1.53125 -2.03125 2.230469 -2.292969 L 2.230469 -2.617188 C 2.230469 -2.875 2.203125 -3.054688 2.152344 -3.15625 C 2.066406 -3.324219 1.886719 -3.410156 1.617188 -3.410156 C 1.488281 -3.410156 1.367188 -3.378906 1.25 -3.3125 C 1.132812 -3.242188 1.074219 -3.148438 1.074219 -3.03125 C 1.074219 -3 1.082031 -2.949219 1.09375 -2.875 C 1.105469 -2.804688 1.113281 -2.757812 1.113281 -2.738281 C 1.113281 -2.597656 1.066406 -2.496094 0.972656 -2.441406 C 0.917969 -2.410156 0.855469 -2.390625 0.78125 -2.390625 C 0.667969 -2.390625 0.582031 -2.429688 0.519531 -2.503906 C 0.460938 -2.578125 0.429688 -2.660156 0.429688 -2.753906 C 0.429688 -2.929688 0.539062 -3.117188 0.757812 -3.308594 C 0.976562 -3.503906 1.296875 -3.601562 1.71875 -3.601562 C 2.210938 -3.601562 2.542969 -3.441406 2.71875 -3.121094 C 2.8125 -2.945312 2.859375 -2.691406 2.859375 -2.359375 L 2.859375 -0.835938 C 2.859375 -0.6875 2.871094 -0.585938 2.890625 -0.53125 C 2.921875 -0.433594 2.992188 -0.382812 3.09375 -0.382812 C 3.152344 -0.382812 3.203125 -0.390625 3.238281 -0.410156 C 3.277344 -0.429688 3.34375 -0.472656 3.4375 -0.539062 L 3.4375 -0.339844 C 3.355469 -0.242188 3.269531 -0.160156 3.175781 -0.0976562 C 3.035156 -0.00390625 2.886719 0.046875 2.742188 0.046875 C 2.570312 0.046875 2.445312 -0.0117188 2.367188 -0.121094 C 2.289062 -0.234375 2.25 -0.367188 2.242188 -0.519531 C 2.046875 -0.351562 1.882812 -0.230469 1.746094 -0.148438 C 1.515625 -0.0117188 1.296875 0.0585938 1.089844 0.0585938 C 0.871094 0.0585938 0.683594 -0.0195312 0.523438 -0.171875 C 0.363281 -0.324219 0.285156 -0.519531 0.285156 -0.753906 Z "/>
</g>
<g id="glyph-0-5">
<path d="M 1.976562 -3.5 L 1.976562 -3.226562 L 1.203125 -3.226562 L 1.195312 -1.039062 C 1.195312 -0.847656 1.210938 -0.703125 1.246094 -0.605469 C 1.304688 -0.429688 1.425781 -0.339844 1.601562 -0.339844 C 1.695312 -0.339844 1.773438 -0.363281 1.839844 -0.40625 C 1.90625 -0.449219 1.984375 -0.519531 2.070312 -0.613281 L 2.167969 -0.527344 L 2.085938 -0.414062 C 1.953125 -0.238281 1.8125 -0.113281 1.667969 -0.0390625 C 1.519531 0.0351562 1.378906 0.0703125 1.242188 0.0703125 C 0.941406 0.0703125 0.742188 -0.0625 0.632812 -0.328125 C 0.574219 -0.472656 0.546875 -0.671875 0.546875 -0.925781 L 0.546875 -3.226562 L 0.132812 -3.226562 C 0.121094 -3.234375 0.109375 -3.242188 0.105469 -3.25 C 0.0976562 -3.257812 0.09375 -3.269531 0.09375 -3.28125 C 0.09375 -3.304688 0.101562 -3.324219 0.113281 -3.339844 C 0.125 -3.355469 0.160156 -3.386719 0.21875 -3.4375 C 0.394531 -3.582031 0.519531 -3.699219 0.597656 -3.789062 C 0.675781 -3.878906 0.855469 -4.117188 1.144531 -4.5 C 1.175781 -4.5 1.195312 -4.496094 1.203125 -4.492188 C 1.207031 -4.488281 1.210938 -4.46875 1.210938 -4.433594 L 1.210938 -3.5 Z "/>
</g>
<g id="glyph-0-6">
<path d="M 0.199219 -1.761719 C 0.199219 -2.265625 0.359375 -2.691406 0.679688 -3.039062 C 1 -3.386719 1.410156 -3.5625 1.914062 -3.5625 C 2.414062 -3.5625 2.832031 -3.398438 3.160156 -3.070312 C 3.488281 -2.738281 3.652344 -2.300781 3.652344 -1.753906 C 3.652344 -1.25 3.492188 -0.8125 3.175781 -0.441406 C 2.855469 -0.0703125 2.441406 0.117188 1.9375 0.117188 C 1.449219 0.117188 1.039062 -0.0625 0.703125 -0.417969 C 0.367188 -0.773438 0.199219 -1.222656 0.199219 -1.761719 Z M 1.808594 -3.335938 C 1.609375 -3.335938 1.433594 -3.269531 1.289062 -3.136719 C 1.035156 -2.90625 0.90625 -2.507812 0.90625 -1.945312 C 0.90625 -1.492188 1.007812 -1.074219 1.214844 -0.683594 C 1.417969 -0.292969 1.699219 -0.0976562 2.0625 -0.0976562 C 2.347656 -0.0976562 2.5625 -0.230469 2.71875 -0.488281 C 2.871094 -0.75 2.945312 -1.09375 2.945312 -1.515625 C 2.945312 -1.953125 2.847656 -2.367188 2.65625 -2.753906 C 2.460938 -3.140625 2.175781 -3.335938 1.808594 -3.335938 Z "/>
</g>
<g id="glyph-0-7">
<path d="M 1.472656 -3.15625 C 1.472656 -3.03125 1.429688 -2.925781 1.34375 -2.847656 C 1.253906 -2.765625 1.15625 -2.726562 1.042969 -2.726562 C 0.921875 -2.726562 0.824219 -2.769531 0.746094 -2.855469 C 0.667969 -2.941406 0.625 -3.039062 0.625 -3.152344 C 0.625 -3.269531 0.667969 -3.367188 0.75 -3.449219 C 0.828125 -3.53125 0.929688 -3.574219 1.042969 -3.574219 C 1.15625 -3.574219 1.253906 -3.535156 1.34375 -3.453125 C 1.429688 -3.375 1.472656 -3.273438 1.472656 -3.15625 Z M 1.03125 0.0664062 C 0.925781 0.0664062 0.832031 0.0234375 0.75 -0.0625 C 0.667969 -0.144531 0.625 -0.246094 0.625 -0.363281 C 0.625 -0.476562 0.667969 -0.578125 0.75 -0.664062 C 0.828125 -0.746094 0.929688 -0.789062 1.046875 -0.789062 C 1.167969 -0.789062 1.269531 -0.75 1.359375 -0.667969 C 1.449219 -0.585938 1.492188 -0.484375 1.492188 -0.367188 C 1.492188 -0.257812 1.449219 -0.15625 1.367188 -0.0664062 C 1.285156 0.0195312 1.171875 0.0664062 1.03125 0.0664062 Z "/>
</g>
<g id="glyph-0-8">
<rect x="0" y="0" width="0" height="0" mask="url(#mask-0)"/>
</g>
<g id="glyph-0-9">
<path d="M 0.683594 -5.144531 L 2.320312 -5.144531 L 2.320312 -4.960938 L 1.628906 -4.960938 C 1.476562 -4.960938 1.375 -4.910156 1.320312 -4.816406 C 1.289062 -4.765625 1.277344 -4.695312 1.277344 -4.605469 L 1.277344 0.621094 C 1.277344 0.738281 1.292969 0.824219 1.324219 0.882812 C 1.378906 0.980469 1.492188 1.027344 1.65625 1.027344 L 2.320312 1.027344 L 2.320312 1.226562 L 0.683594 1.226562 Z "/>
</g>
<g id="glyph-0-10">
<path d="M 2.300781 -5.21875 C 2.3125 -5.207031 2.316406 -5.195312 2.320312 -5.1875 C 2.320312 -5.183594 2.320312 -5.167969 2.320312 -5.144531 L 2.320312 -0.574219 C 2.320312 -0.378906 2.371094 -0.253906 2.476562 -0.203125 C 2.578125 -0.148438 2.773438 -0.117188 3.058594 -0.105469 L 3.058594 0 L 0.914062 0 L 0.914062 -0.113281 C 1.222656 -0.128906 1.421875 -0.171875 1.515625 -0.238281 C 1.609375 -0.308594 1.65625 -0.457031 1.65625 -0.683594 L 1.65625 -4.199219 C 1.65625 -4.320312 1.640625 -4.414062 1.609375 -4.476562 C 1.578125 -4.539062 1.515625 -4.570312 1.414062 -4.570312 C 1.347656 -4.570312 1.261719 -4.554688 1.15625 -4.515625 C 1.050781 -4.480469 0.953125 -4.441406 0.863281 -4.402344 L 0.863281 -4.507812 L 2.253906 -5.21875 Z "/>
</g>
<g id="glyph-0-11">
<path d="M 1.898438 1.226562 L 0.257812 1.226562 L 0.257812 1.035156 L 0.953125 1.035156 C 1.101562 1.035156 1.207031 0.988281 1.261719 0.894531 C 1.289062 0.84375 1.300781 0.777344 1.300781 0.6875 L 1.300781 -4.546875 C 1.300781 -4.671875 1.277344 -4.769531 1.226562 -4.839844 C 1.179688 -4.910156 1.078125 -4.949219 0.925781 -4.949219 L 0.257812 -4.949219 L 0.257812 -5.144531 L 1.898438 -5.144531 Z "/>
</g>
</g>
<image id="source-215" x="0" y="0" width="0" height="0"/>
<mask id="mask-0">
<use xlink:href="#source-215"/>
</mask>
</defs>
<g fill="rgb(100%, 100%, 100%)" fill-opacity="1">
<use xlink:href="#glyph-0-0" x="30" y="25.833008"/>
<use xlink:href="#glyph-0-1" x="31" y="25.833008"/>
<use xlink:href="#glyph-0-2" x="36" y="25.833008"/>
<use xlink:href="#glyph-0-3" x="39" y="25.833008"/>
<use xlink:href="#glyph-0-4" x="42" y="25.833008"/>
<use xlink:href="#glyph-0-5" x="45" y="25.833008"/>
<use xlink:href="#glyph-0-6" x="47" y="25.833008"/>
<use xlink:href="#glyph-0-2" x="51" y="25.833008"/>
<use xlink:href="#glyph-0-0" x="54" y="25.833008"/>
<use xlink:href="#glyph-0-7" x="55" y="25.833008"/>
<use xlink:href="#glyph-0-8" x="57" y="25.833008"/>
<use xlink:href="#glyph-0-9" x="59" y="25.833008"/>
<use xlink:href="#glyph-0-10" x="62" y="25.833008"/>
<use xlink:href="#glyph-0-11" x="66" y="25.833008"/>
</g>
</svg>
