<?xml version="1.0" encoding="UTF-8"?>
<svg xmlns="http://www.w3.org/2000/svg" xmlns:xlink="http://www.w3.org/1999/xlink" width="1280" height="720" viewBox="0 0 1280 720">
<defs>
<g>
<g id="glyph-0-0">
<path d="M 3.238281 -6.335938 L 0.574219 -2.570312 L 3.238281 -2.570312 Z M 3.597656 -7.453125 L 4.113281 -7.453125 L 4.113281 -2.570312 L 5.246094 -2.570312 L 5.246094 -1.851562 L 4.113281 -1.851562 L 4.113281 0 L 3.25 0 L 3.25 -1.851562 L 0.125 -1.851562 L 0.125 -2.570312 Z "/>
</g>
<g id="glyph-0-1">
<path d="M 1.8125 0.128906 C 1.636719 0.128906 1.492188 0.0703125 1.371094 -0.0507812 C 1.253906 -0.171875 1.195312 -0.316406 1.195312 -0.488281 C 1.195312 -0.660156 1.253906 -0.804688 1.375 -0.921875 C 1.496094 -1.042969 1.640625 -1.101562 1.8125 -1.101562 C 1.980469 -1.101562 2.125 -1.042969 2.246094 -0.921875 C 2.367188 -0.804688 2.425781 -0.660156 2.425781 -0.488281 C 2.425781 -0.316406 2.367188 -0.171875 2.25 -0.0507812 C 2.132812 0.0703125 1.984375 0.128906 1.8125 0.128906 Z "/>
</g>
<g id="glyph-0-2">
<rect x="0" y="0" width="0" height="0" mask="url(#mask-0)"/>
</g>
<g id="glyph-0-3">
<path d="M 2.207031 -3.804688 C 3.007812 -3.832031 3.578125 -3.914062 3.921875 -4.050781 C 4.511719 -4.292969 4.804688 -4.75 4.804688 -5.417969 C 4.804688 -6.0625 4.542969 -6.503906 4.015625 -6.738281 C 3.734375 -6.863281 3.359375 -6.925781 2.890625 -6.925781 C 2.578125 -6.925781 2.382812 -6.90625 2.3125 -6.859375 C 2.242188 -6.816406 2.207031 -6.707031 2.207031 -6.542969 Z M 0.125 -0.199219 C 0.550781 -0.238281 0.816406 -0.324219 0.921875 -0.449219 C 1.027344 -0.578125 1.078125 -0.871094 1.078125 -1.335938 L 1.078125 -6.148438 C 1.078125 -6.539062 1.019531 -6.792969 0.902344 -6.914062 C 0.785156 -7.035156 0.527344 -7.113281 0.125 -7.144531 L 0.125 -7.351562 L 3.199219 -7.351562 C 3.839844 -7.351562 4.375 -7.269531 4.800781 -7.105469 C 5.609375 -6.800781 6.015625 -6.234375 6.015625 -5.410156 C 6.015625 -4.855469 5.835938 -4.429688 5.476562 -4.132812 C 5.117188 -3.835938 4.628906 -3.640625 4.007812 -3.546875 L 6.296875 -0.730469 C 6.4375 -0.558594 6.582031 -0.433594 6.722656 -0.351562 C 6.863281 -0.273438 7.042969 -0.222656 7.265625 -0.199219 L 7.265625 0 L 5.472656 0 L 2.828125 -3.417969 L 2.207031 -3.390625 L 2.207031 -1.203125 C 2.207031 -0.792969 2.269531 -0.53125 2.394531 -0.421875 C 2.519531 -0.3125 2.792969 -0.238281 3.210938 -0.199219 L 3.210938 0 L 0.125 0 Z "/>
</g>
<g id="glyph-0-4">
<path d="M 2.542969 -5.089844 C 3.054688 -5.089844 3.5 -4.914062 3.882812 -4.558594 C 4.265625 -4.207031 4.460938 -3.707031 4.460938 -3.058594 L 1.015625 -3.058594 C 1.050781 -2.21875 1.242188 -1.609375 1.585938 -1.226562 C 1.929688 -0.84375 2.335938 -0.652344 2.804688 -0.652344 C 3.183594 -0.652344 3.503906 -0.75 3.765625 -0.949219 C 4.027344 -1.148438 4.265625 -1.429688 4.488281 -1.796875 L 4.675781 -1.730469 C 4.527344 -1.269531 4.25 -0.847656 3.84375 -0.457031 C 3.4375 -0.0664062 2.9375 0.128906 2.347656 0.128906 C 1.667969 0.128906 1.144531 -0.125 0.773438 -0.640625 C 0.402344 -1.152344 0.21875 -1.746094 0.21875 -2.414062 C 0.21875 -3.140625 0.433594 -3.769531 0.863281 -4.296875 C 1.292969 -4.824219 1.855469 -5.089844 2.542969 -5.089844 Z M 2.230469 -4.691406 C 1.816406 -4.691406 1.503906 -4.511719 1.285156 -4.144531 C 1.167969 -3.949219 1.085938 -3.703125 1.035156 -3.40625 L 3.324219 -3.40625 C 3.285156 -3.769531 3.21875 -4.039062 3.121094 -4.214844 C 2.941406 -4.535156 2.644531 -4.691406 2.230469 -4.691406 Z "/>
</g>
<g id="glyph-0-5">
<path d="M 2.632812 -5.125 C 2.894531 -5.125 3.136719 -5.070312 3.359375 -4.953125 C 3.503906 -4.878906 3.640625 -4.773438 3.777344 -4.636719 L 3.777344 -6.363281 C 3.777344 -6.585938 3.75 -6.734375 3.703125 -6.820312 C 3.652344 -6.902344 3.535156 -6.945312 3.351562 -6.945312 C 3.308594 -6.945312 3.269531 -6.941406 3.238281 -6.9375 C 3.207031 -6.933594 3.132812 -6.925781 3.023438 -6.917969 L 3.023438 -7.097656 L 3.464844 -7.210938 C 3.628906 -7.253906 3.792969 -7.296875 3.953125 -7.34375 C 4.117188 -7.390625 4.261719 -7.4375 4.382812 -7.480469 C 4.441406 -7.5 4.535156 -7.535156 4.671875 -7.585938 L 4.703125 -7.574219 L 4.691406 -7.003906 C 4.6875 -6.796875 4.683594 -6.585938 4.683594 -6.367188 C 4.679688 -6.148438 4.675781 -5.929688 4.675781 -5.71875 L 4.664062 -1.285156 C 4.664062 -1.050781 4.695312 -0.886719 4.753906 -0.792969 C 4.8125 -0.699219 4.964844 -0.652344 5.214844 -0.652344 C 5.253906 -0.652344 5.292969 -0.652344 5.332031 -0.652344 C 5.371094 -0.65625 5.414062 -0.660156 5.453125 -0.667969 L 5.453125 -0.488281 C 5.429688 -0.480469 5.167969 -0.390625 4.664062 -0.21875 L 3.8125 0.101562 L 3.777344 0.0546875 L 3.777344 -0.613281 C 3.574219 -0.390625 3.398438 -0.234375 3.25 -0.140625 C 2.984375 0.0234375 2.679688 0.101562 2.332031 0.101562 C 1.71875 0.101562 1.21875 -0.132812 0.839844 -0.609375 C 0.457031 -1.085938 0.265625 -1.636719 0.265625 -2.261719 C 0.265625 -3.046875 0.496094 -3.71875 0.953125 -4.28125 C 1.410156 -4.84375 1.96875 -5.125 2.632812 -5.125 Z M 2.832031 -0.484375 C 3.113281 -0.484375 3.339844 -0.566406 3.515625 -0.730469 C 3.6875 -0.898438 3.777344 -1.054688 3.777344 -1.203125 L 3.777344 -3.53125 C 3.777344 -4 3.648438 -4.332031 3.398438 -4.527344 C 3.148438 -4.71875 2.902344 -4.816406 2.664062 -4.816406 C 2.207031 -4.816406 1.855469 -4.617188 1.601562 -4.210938 C 1.347656 -3.808594 1.21875 -3.3125 1.21875 -2.722656 C 1.21875 -2.140625 1.355469 -1.621094 1.625 -1.167969 C 1.894531 -0.710938 2.296875 -0.484375 2.832031 -0.484375 Z "/>
</g>
<g id="glyph-0-6">
<path d="M 1.71875 -5.023438 L 1.71875 -1.550781 C 1.71875 -1.304688 1.753906 -1.109375 1.824219 -0.960938 C 1.957031 -0.6875 2.203125 -0.546875 2.5625 -0.546875 C 2.808594 -0.546875 3.046875 -0.628906 3.28125 -0.792969 C 3.414062 -0.882812 3.550781 -1.007812 3.6875 -1.167969 L 3.6875 -4.140625 C 3.6875 -4.417969 3.632812 -4.601562 3.527344 -4.6875 C 3.417969 -4.773438 3.199219 -4.828125 2.875 -4.84375 L 2.875 -5.023438 L 4.628906 -5.023438 L 4.628906 -1.203125 C 4.628906 -0.957031 4.671875 -0.789062 4.761719 -0.695312 C 4.847656 -0.605469 5.035156 -0.5625 5.320312 -0.574219 L 5.320312 -0.421875 C 5.121094 -0.367188 4.976562 -0.328125 4.882812 -0.300781 C 4.789062 -0.273438 4.632812 -0.222656 4.410156 -0.152344 C 4.316406 -0.121094 4.109375 -0.0429688 3.792969 0.0820312 C 3.773438 0.0820312 3.761719 0.0742188 3.757812 0.0585938 C 3.753906 0.0429688 3.753906 0.0234375 3.753906 0 L 3.753906 -0.875 C 3.507812 -0.582031 3.285156 -0.363281 3.082031 -0.222656 C 2.773438 -0.00390625 2.449219 0.101562 2.105469 0.101562 C 1.789062 0.101562 1.492188 -0.0078125 1.214844 -0.234375 C 0.933594 -0.453125 0.792969 -0.824219 0.792969 -1.34375 L 0.792969 -4.160156 C 0.792969 -4.449219 0.730469 -4.644531 0.609375 -4.742188 C 0.527344 -4.804688 0.359375 -4.847656 0.0976562 -4.871094 L 0.0976562 -5.023438 Z "/>
</g>
<g id="glyph-0-7">
<path d="M 2.761719 -5.117188 C 3.214844 -5.117188 3.601562 -5 3.929688 -4.765625 C 4.257812 -4.53125 4.421875 -4.277344 4.421875 -4 C 4.421875 -3.878906 4.378906 -3.769531 4.296875 -3.664062 C 4.214844 -3.5625 4.085938 -3.511719 3.910156 -3.511719 C 3.785156 -3.511719 3.671875 -3.554688 3.578125 -3.640625 C 3.480469 -3.726562 3.414062 -3.855469 3.367188 -4.019531 L 3.304688 -4.28125 C 3.257812 -4.472656 3.175781 -4.609375 3.058594 -4.6875 C 2.941406 -4.761719 2.78125 -4.800781 2.585938 -4.800781 C 2.175781 -4.800781 1.828125 -4.621094 1.542969 -4.261719 C 1.257812 -3.902344 1.117188 -3.421875 1.117188 -2.828125 C 1.117188 -2.28125 1.273438 -1.789062 1.585938 -1.355469 C 1.898438 -0.921875 2.320312 -0.707031 2.855469 -0.707031 C 3.230469 -0.707031 3.5625 -0.828125 3.855469 -1.074219 C 4.023438 -1.214844 4.210938 -1.4375 4.421875 -1.746094 L 4.574219 -1.65625 C 4.367188 -1.222656 4.148438 -0.878906 3.921875 -0.625 C 3.484375 -0.140625 2.976562 0.101562 2.402344 0.101562 C 1.839844 0.101562 1.339844 -0.121094 0.90625 -0.5625 C 0.472656 -1.007812 0.253906 -1.613281 0.253906 -2.375 C 0.253906 -3.125 0.492188 -3.769531 0.964844 -4.308594 C 1.4375 -4.847656 2.039062 -5.117188 2.761719 -5.117188 Z "/>
</g>
<g id="glyph-0-8">
<path d="M 4.804688 -5.332031 C 4.804688 -6.011719 4.511719 -6.480469 3.925781 -6.730469 C 3.613281 -6.871094 3.214844 -6.9375 2.734375 -6.9375 C 2.507812 -6.9375 2.367188 -6.914062 2.3125 -6.871094 C 2.261719 -6.824219 2.234375 -6.726562 2.234375 -6.570312 L 2.234375 -3.671875 C 2.433594 -3.65625 2.5625 -3.644531 2.625 -3.640625 C 2.6875 -3.636719 2.746094 -3.632812 2.804688 -3.632812 C 3.316406 -3.632812 3.714844 -3.707031 4.007812 -3.851562 C 4.539062 -4.117188 4.804688 -4.609375 4.804688 -5.332031 Z M 0.179688 -0.199219 C 0.601562 -0.238281 0.867188 -0.324219 0.972656 -0.453125 C 1.078125 -0.582031 1.128906 -0.875 1.128906 -1.335938 L 1.128906 -6.148438 C 1.128906 -6.535156 1.070312 -6.789062 0.953125 -6.910156 C 0.835938 -7.035156 0.578125 -7.113281 0.179688 -7.144531 L 0.179688 -7.351562 L 3.109375 -7.351562 C 4.050781 -7.351562 4.769531 -7.167969 5.269531 -6.804688 C 5.765625 -6.4375 6.015625 -5.957031 6.015625 -5.359375 C 6.015625 -4.605469 5.738281 -4.054688 5.1875 -3.714844 C 4.632812 -3.375 3.941406 -3.207031 3.109375 -3.207031 C 2.988281 -3.207031 2.835938 -3.207031 2.648438 -3.214844 C 2.464844 -3.21875 2.324219 -3.222656 2.234375 -3.222656 L 2.234375 -1.203125 C 2.234375 -0.785156 2.300781 -0.519531 2.425781 -0.414062 C 2.554688 -0.304688 2.84375 -0.234375 3.289062 -0.199219 L 3.289062 0 L 0.179688 0 Z "/>
</g>
<g id="glyph-0-9">
<path d="M 0.0976562 -0.152344 C 0.394531 -0.191406 0.589844 -0.265625 0.679688 -0.371094 C 0.773438 -0.476562 0.820312 -0.730469 0.820312 -1.128906 L 0.820312 -6.335938 C 0.820312 -6.539062 0.792969 -6.6875 0.742188 -6.785156 C 0.6875 -6.878906 0.5625 -6.925781 0.359375 -6.925781 C 0.320312 -6.925781 0.28125 -6.925781 0.242188 -6.917969 C 0.203125 -6.914062 0.160156 -6.90625 0.113281 -6.902344 L 0.113281 -7.097656 C 0.273438 -7.144531 0.46875 -7.199219 0.703125 -7.265625 C 0.9375 -7.332031 1.097656 -7.382812 1.1875 -7.410156 L 1.707031 -7.574219 L 1.71875 -7.535156 L 1.71875 -4.203125 C 1.945312 -4.464844 2.148438 -4.65625 2.328125 -4.78125 C 2.644531 -4.996094 2.988281 -5.105469 3.359375 -5.105469 C 3.945312 -5.105469 4.34375 -4.859375 4.558594 -4.367188 C 4.671875 -4.105469 4.730469 -3.765625 4.730469 -3.339844 L 4.730469 -1.128906 C 4.730469 -0.746094 4.773438 -0.496094 4.863281 -0.378906 C 4.953125 -0.265625 5.132812 -0.1875 5.410156 -0.152344 L 5.410156 0 L 3.058594 0 L 3.058594 -0.152344 C 3.375 -0.195312 3.578125 -0.269531 3.667969 -0.375 C 3.757812 -0.480469 3.804688 -0.730469 3.804688 -1.128906 L 3.804688 -3.324219 C 3.804688 -3.675781 3.742188 -3.960938 3.625 -4.175781 C 3.507812 -4.394531 3.289062 -4.503906 2.960938 -4.503906 C 2.679688 -4.503906 2.40625 -4.402344 2.144531 -4.199219 C 1.878906 -3.996094 1.746094 -3.863281 1.746094 -3.804688 L 1.746094 -1.128906 C 1.746094 -0.722656 1.792969 -0.46875 1.886719 -0.367188 C 1.980469 -0.265625 2.183594 -0.195312 2.488281 -0.152344 L 2.488281 0 L 0.0976562 0 Z "/>
</g>
<g id="glyph-0-10">
<path d="M 3.183594 -3.003906 C 2.769531 -2.867188 2.425781 -2.714844 2.152344 -2.550781 C 1.632812 -2.226562 1.371094 -1.863281 1.371094 -1.453125 C 1.371094 -1.125 1.480469 -0.882812 1.699219 -0.726562 C 1.839844 -0.625 1.996094 -0.574219 2.171875 -0.574219 C 2.410156 -0.574219 2.636719 -0.640625 2.855469 -0.777344 C 3.074219 -0.910156 3.183594 -1.078125 3.183594 -1.285156 Z M 0.40625 -1.078125 C 0.40625 -1.601562 0.667969 -2.042969 1.195312 -2.390625 C 1.527344 -2.609375 2.191406 -2.902344 3.183594 -3.277344 L 3.183594 -3.738281 C 3.183594 -4.105469 3.148438 -4.363281 3.074219 -4.507812 C 2.953125 -4.75 2.699219 -4.871094 2.3125 -4.871094 C 2.128906 -4.871094 1.953125 -4.824219 1.785156 -4.730469 C 1.617188 -4.632812 1.535156 -4.5 1.535156 -4.328125 C 1.535156 -4.285156 1.542969 -4.210938 1.5625 -4.109375 C 1.582031 -4.007812 1.589844 -3.941406 1.589844 -3.910156 C 1.589844 -3.707031 1.523438 -3.566406 1.390625 -3.488281 C 1.3125 -3.441406 1.222656 -3.417969 1.117188 -3.417969 C 0.953125 -3.417969 0.828125 -3.472656 0.742188 -3.578125 C 0.65625 -3.683594 0.613281 -3.804688 0.613281 -3.933594 C 0.613281 -4.1875 0.769531 -4.453125 1.082031 -4.726562 C 1.394531 -5.003906 1.855469 -5.144531 2.457031 -5.144531 C 3.160156 -5.144531 3.632812 -4.914062 3.882812 -4.460938 C 4.019531 -4.210938 4.085938 -3.847656 4.085938 -3.367188 L 4.085938 -1.195312 C 4.085938 -0.984375 4.097656 -0.839844 4.128906 -0.757812 C 4.175781 -0.617188 4.273438 -0.546875 4.421875 -0.546875 C 4.503906 -0.546875 4.574219 -0.5625 4.628906 -0.585938 C 4.683594 -0.609375 4.777344 -0.671875 4.910156 -0.769531 L 4.910156 -0.488281 C 4.792969 -0.347656 4.667969 -0.230469 4.535156 -0.140625 C 4.332031 -0.00390625 4.125 0.0664062 3.917969 0.0664062 C 3.671875 0.0664062 3.492188 -0.015625 3.382812 -0.171875 C 3.273438 -0.332031 3.210938 -0.523438 3.199219 -0.742188 C 2.925781 -0.503906 2.691406 -0.328125 2.496094 -0.210938 C 2.167969 -0.015625 1.855469 0.0820312 1.558594 0.0820312 C 1.246094 0.0820312 0.976562 -0.0273438 0.75 -0.246094 C 0.519531 -0.464844 0.40625 -0.742188 0.40625 -1.078125 Z "/>
</g>
<g id="glyph-0-11">
<path d="M 0.574219 -1.707031 L 0.753906 -1.707031 C 0.835938 -1.296875 0.949219 -0.980469 1.089844 -0.757812 C 1.34375 -0.355469 1.714844 -0.152344 2.203125 -0.152344 C 2.472656 -0.152344 2.6875 -0.226562 2.84375 -0.378906 C 3.003906 -0.527344 3.082031 -0.722656 3.082031 -0.960938 C 3.082031 -1.113281 3.035156 -1.257812 2.945312 -1.398438 C 2.855469 -1.539062 2.695312 -1.679688 2.46875 -1.8125 L 1.859375 -2.160156 C 1.414062 -2.398438 1.089844 -2.636719 0.878906 -2.878906 C 0.667969 -3.121094 0.5625 -3.410156 0.5625 -3.738281 C 0.5625 -4.144531 0.707031 -4.476562 1 -4.734375 C 1.289062 -4.996094 1.652344 -5.125 2.089844 -5.125 C 2.28125 -5.125 2.492188 -5.089844 2.71875 -5.019531 C 2.949219 -4.945312 3.078125 -4.910156 3.109375 -4.910156 C 3.175781 -4.910156 3.21875 -4.917969 3.25 -4.9375 C 3.277344 -4.953125 3.304688 -4.984375 3.324219 -5.023438 L 3.457031 -5.023438 L 3.492188 -3.511719 L 3.324219 -3.511719 C 3.253906 -3.863281 3.15625 -4.132812 3.03125 -4.328125 C 2.808594 -4.691406 2.484375 -4.871094 2.0625 -4.871094 C 1.808594 -4.871094 1.609375 -4.792969 1.464844 -4.636719 C 1.320312 -4.480469 1.246094 -4.300781 1.246094 -4.089844 C 1.246094 -3.757812 1.496094 -3.460938 1.996094 -3.199219 L 2.710938 -2.816406 C 3.480469 -2.394531 3.867188 -1.90625 3.867188 -1.351562 C 3.867188 -0.925781 3.707031 -0.574219 3.386719 -0.304688 C 3.066406 -0.03125 2.648438 0.101562 2.132812 0.101562 C 1.914062 0.101562 1.667969 0.0664062 1.394531 -0.00390625 C 1.121094 -0.078125 0.957031 -0.113281 0.90625 -0.113281 C 0.863281 -0.113281 0.824219 -0.0976562 0.792969 -0.0664062 C 0.761719 -0.0351562 0.734375 0 0.714844 0.0429688 L 0.574219 0.0429688 Z "/>
</g>
</g>
<image id="source-32" x="0" y="0" width="0" height="0"/>
<mask id="mask-0">
<use xlink:href="#source-32"/>
</mask>
</defs>
<g fill="rgb(96.862745%, 85.098039%, 43.529412%)" fill-opacity="1">
<use xlink:href="#glyph-0-0" x="30" y="28.333008"/>
<use xlink:href="#glyph-0-1" x="36" y="28.333008"/>
<use xlink:href="#glyph-0-2" x="39" y="28.333008"/>
<use xlink:href="#glyph-0-3" x="42" y="28.333008"/>
<use xlink:href="#glyph-0-4" x="49" y="28.333008"/>
<use xlink:href="#glyph-0-5" x="54" y="28.333008"/>
<use xlink:href="#glyph-0-6" x="60" y="28.333008"/>
<use xlink:href="#glyph-0-7" x="66" y="28.333008"/>
<use xlink:href="#glyph-0-4" x="71" y="28.333008"/>
<use xlink:href="#glyph-0-2" x="76" y="28.333008"/>
<use xlink:href="#glyph-0-8" x="79" y="28.333008"/>
<use xlink:href="#glyph-0-9" x="85" y="28.333008"/>
<use xlink:href="#glyph-0-10" x="91" y="28.333008"/>
<use xlink:href="#glyph-0-11" x="96" y="28.333008"/>
<use xlink:href="#glyph-0-4" x="100" y="28.333008"/>
</g>
</svg>
