<?xml version="1.0" encoding="UTF-8"?>
<svg xmlns="http://www.w3.org/2000/svg" xmlns:xlink="http://www.w3.org/1999/xlink" width="1280" height="720" viewBox="0 0 1280 720">
<defs>
<g>
<g id="glyph-0-0">
<path d="M 0.671875 -5.253906 C 0.792969 -5.253906 0.867188 -5.222656 0.90625 -5.160156 C 0.941406 -5.09375 0.960938 -5.007812 0.960938 -4.894531 C 0.960938 -4.878906 0.960938 -4.859375 0.957031 -4.84375 C 0.957031 -4.824219 0.953125 -4.773438 0.941406 -4.6875 L 0.753906 -3.015625 L 0.617188 -3.015625 L 0.421875 -4.5625 C 0.414062 -4.625 0.40625 -4.6875 0.402344 -4.746094 C 0.394531 -4.808594 0.390625 -4.871094 0.390625 -4.933594 C 0.390625 -5.011719 0.410156 -5.085938 0.441406 -5.152344 C 0.476562 -5.222656 0.554688 -5.253906 0.671875 -5.253906 Z "/>
</g>
<g id="glyph-0-1">
<path d="M 1.976562 -3.5 L 1.976562 -3.226562 L 1.203125 -3.226562 L 1.195312 -1.039062 C 1.195312 -0.847656 1.210938 -0.703125 1.246094 -0.605469 C 1.304688 -0.429688 1.425781 -0.339844 1.601562 -0.339844 C 1.695312 -0.339844 1.773438 -0.363281 1.839844 -0.40625 C 1.90625 -0.449219 1.984375 -0.519531 2.070312 -0.613281 L 2.167969 -0.527344 L 2.085938 -0.414062 C 1.953125 -0.238281 1.8125 -0.113281 1.667969 -0.0390625 C 1.519531 0.0351562 1.378906 0.0703125 1.242188 0.0703125 C 0.941406 0.0703125 0.742188 -0.0625 0.632812 -0.328125 C 0.574219 -0.472656 0.546875 -0.671875 0.546875 -0.925781 L 0.546875 -3.226562 L 0.132812 -3.226562 C 0.121094 -3.234375 0.109375 -3.242188 0.105469 -3.25 C 0.0976562 -3.257812 0.09375 -3.269531 0.09375 -3.28125 C 0.09375 -3.304688 0.101562 -3.324219 0.113281 -3.339844 C 0.125 -3.355469 0.160156 -3.386719 0.21875 -3.4375 C 0.394531 -3.582031 0.519531 -3.699219 0.597656 -3.789062 C 0.675781 -3.878906 0.855469 -4.117188 1.144531 -4.5 C 1.175781 -4.5 1.195312 -4.496094 1.203125 -4.492188 C 1.207031 -4.488281 1.210938 -4.46875 1.210938 -4.433594 L 1.210938 -3.5 Z "/>
</g>
<g id="glyph-0-2">
<path d="M 0.0664062 -0.105469 C 0.273438 -0.132812 0.410156 -0.183594 0.476562 -0.261719 C 0.542969 -0.335938 0.574219 -0.511719 0.574219 -0.789062 L 0.574219 -4.433594 C 0.574219 -4.578125 0.554688 -4.683594 0.519531 -4.75 C 0.480469 -4.816406 0.390625 -4.847656 0.25 -4.847656 C 0.222656 -4.847656 0.195312 -4.847656 0.167969 -4.84375 C 0.140625 -4.839844 0.113281 -4.835938 0.078125 -4.832031 L 0.078125 -4.96875 C 0.191406 -5 0.328125 -5.039062 0.492188 -5.085938 C 0.65625 -5.132812 0.769531 -5.167969 0.832031 -5.1875 L 1.195312 -5.300781 L 1.203125 -5.273438 L 1.203125 -2.941406 C 1.363281 -3.125 1.503906 -3.257812 1.628906 -3.34375 C 1.851562 -3.496094 2.09375 -3.574219 2.351562 -3.574219 C 2.761719 -3.574219 3.039062 -3.402344 3.191406 -3.058594 C 3.269531 -2.875 3.3125 -2.636719 3.3125 -2.339844 L 3.3125 -0.789062 C 3.3125 -0.519531 3.34375 -0.347656 3.40625 -0.265625 C 3.46875 -0.183594 3.59375 -0.132812 3.785156 -0.105469 L 3.785156 0 L 2.140625 0 L 2.140625 -0.105469 C 2.363281 -0.136719 2.503906 -0.1875 2.566406 -0.261719 C 2.628906 -0.335938 2.660156 -0.511719 2.660156 -0.789062 L 2.660156 -2.328125 C 2.660156 -2.574219 2.621094 -2.773438 2.539062 -2.925781 C 2.457031 -3.078125 2.300781 -3.152344 2.074219 -3.152344 C 1.875 -3.152344 1.683594 -3.082031 1.5 -2.9375 C 1.316406 -2.796875 1.222656 -2.707031 1.222656 -2.660156 L 1.222656 -0.789062 C 1.222656 -0.507812 1.253906 -0.328125 1.320312 -0.257812 C 1.386719 -0.1875 1.527344 -0.136719 1.742188 -0.105469 L 1.742188 0 L 0.0664062 0 Z "/>
</g>
<g id="glyph-0-3">
<path d="M 1.78125 -3.5625 C 2.136719 -3.5625 2.449219 -3.4375 2.71875 -3.191406 C 2.988281 -2.945312 3.121094 -2.59375 3.121094 -2.140625 L 0.710938 -2.140625 C 0.734375 -1.554688 0.867188 -1.125 1.109375 -0.859375 C 1.347656 -0.589844 1.632812 -0.457031 1.964844 -0.457031 C 2.230469 -0.457031 2.453125 -0.523438 2.636719 -0.664062 C 2.816406 -0.804688 2.984375 -1 3.140625 -1.257812 L 3.273438 -1.210938 C 3.167969 -0.890625 2.976562 -0.59375 2.691406 -0.320312 C 2.40625 -0.046875 2.058594 0.0898438 1.644531 0.0898438 C 1.167969 0.0898438 0.800781 -0.0898438 0.542969 -0.449219 C 0.28125 -0.808594 0.152344 -1.222656 0.152344 -1.691406 C 0.152344 -2.199219 0.300781 -2.636719 0.605469 -3.007812 C 0.90625 -3.378906 1.296875 -3.5625 1.78125 -3.5625 Z M 1.5625 -3.285156 C 1.273438 -3.285156 1.050781 -3.15625 0.898438 -2.902344 C 0.820312 -2.765625 0.761719 -2.59375 0.726562 -2.386719 L 2.328125 -2.386719 C 2.300781 -2.636719 2.25 -2.828125 2.183594 -2.949219 C 2.058594 -3.171875 1.851562 -3.285156 1.5625 -3.285156 Z "/>
</g>
<g id="glyph-0-4">
<path d="M 1.472656 -3.15625 C 1.472656 -3.03125 1.429688 -2.925781 1.34375 -2.847656 C 1.253906 -2.765625 1.15625 -2.726562 1.042969 -2.726562 C 0.921875 -2.726562 0.824219 -2.769531 0.746094 -2.855469 C 0.667969 -2.941406 0.625 -3.039062 0.625 -3.152344 C 0.625 -3.269531 0.667969 -3.367188 0.75 -3.449219 C 0.828125 -3.53125 0.929688 -3.574219 1.042969 -3.574219 C 1.15625 -3.574219 1.253906 -3.535156 1.34375 -3.453125 C 1.429688 -3.375 1.472656 -3.273438 1.472656 -3.15625 Z M 1.03125 0.0664062 C 0.925781 0.0664062 0.832031 0.0234375 0.75 -0.0625 C 0.667969 -0.144531 0.625 -0.246094 0.625 -0.363281 C 0.625 -0.476562 0.667969 -0.578125 0.75 -0.664062 C 0.828125 -0.746094 0.929688 -0.789062 1.046875 -0.789062 C 1.167969 -0.789062 1.269531 -0.75 1.359375 -0.667969 C 1.449219 -0.585938 1.492188 -0.484375 1.492188 -0.367188 C 1.492188 -0.257812 1.449219 -0.15625 1.367188 -0.0664062 C 1.285156 0.0195312 1.171875 0.0664062 1.03125 0.0664062 Z "/>
</g>
<g id="glyph-0-5">
<rect x="0" y="0" width="0" height="0" mask="url(#mask-0)"/>
</g>
<g id="glyph-0-6">
<path d="M 0.683594 -5.144531 L 2.320312 -5.144531 L 2.320312 -4.960938 L 1.628906 -4.960938 C 1.476562 -4.960938 1.375 -4.910156 1.320312 -4.816406 C 1.289062 -4.765625 1.277344 -4.695312 1.277344 -4.605469 L 1.277344 0.621094 C 1.277344 0.738281 1.292969 0.824219 1.324219 0.882812 C 1.378906 0.980469 1.492188 1.027344 1.65625 1.027344 L 2.320312 1.027344 L 2.320312 1.226562 L 0.683594 1.226562 Z "/>
</g>
<g id="glyph-0-7">
<path d="M 2.300781 -5.21875 C 2.3125 -5.207031 2.316406 -5.195312 2.320312 -5.1875 C 2.320312 -5.183594 2.320312 -5.167969 2.320312 -5.144531 L 2.320312 -0.574219 C 2.320312 -0.378906 2.371094 -0.253906 2.476562 -0.203125 C 2.578125 -0.148438 2.773438 -0.117188 3.058594 -0.105469 L 3.058594 0 L 0.914062 0 L 0.914062 -0.113281 C 1.222656 -0.128906 1.421875 -0.171875 1.515625 -0.238281 C 1.609375 -0.308594 1.65625 -0.457031 1.65625 -0.683594 L 1.65625 -4.199219 C 1.65625 -4.320312 1.640625 -4.414062 1.609375 -4.476562 C 1.578125 -4.539062 1.515625 -4.570312 1.414062 -4.570312 C 1.347656 -4.570312 1.261719 -4.554688 1.15625 -4.515625 C 1.050781 -4.480469 0.953125 -4.441406 0.863281 -4.402344 L 0.863281 -4.507812 L 2.253906 -5.21875 Z "/>
</g>
<g id="glyph-0-8">
<path d="M 1.90625 -0.078125 C 1.90625 0.175781 1.8125 0.414062 1.628906 0.632812 C 1.445312 0.855469 1.246094 1.011719 1.03125 1.109375 L 0.960938 0.957031 C 1.203125 0.820312 1.371094 0.671875 1.464844 0.511719 C 1.558594 0.351562 1.601562 0.21875 1.601562 0.113281 C 1.601562 0.078125 1.589844 0.0546875 1.570312 0.046875 C 1.546875 0.0351562 1.523438 0.03125 1.496094 0.03125 L 1.242188 0.0585938 C 1.136719 0.0585938 1.039062 0.0234375 0.949219 -0.046875 C 0.859375 -0.117188 0.816406 -0.21875 0.816406 -0.347656 C 0.816406 -0.449219 0.851562 -0.550781 0.925781 -0.644531 C 1 -0.742188 1.121094 -0.789062 1.289062 -0.789062 C 1.449219 -0.789062 1.589844 -0.726562 1.714844 -0.601562 C 1.84375 -0.476562 1.90625 -0.300781 1.90625 -0.078125 Z "/>
</g>
<g id="glyph-0-9">
<path d="M 1.898438 1.226562 L 0.257812 1.226562 L 0.257812 1.035156 L 0.953125 1.035156 C 1.101562 1.035156 1.207031 0.988281 1.261719 0.894531 C 1.289062 0.84375 1.300781 0.777344 1.300781 0.6875 L 1.300781 -4.546875 C 1.300781 -4.671875 1.277344 -4.769531 1.226562 -4.839844 C 1.179688 -4.910156 1.078125 -4.949219 0.925781 -4.949219 L 0.257812 -4.949219 L 0.257812 -5.144531 L 1.898438 -5.144531 Z "/>
</g>
</g>
<image id="source-215" x="0" y="0" width="0" height="0"/>
<mask id="mask-0">
<use xlink:href="#source-215"/>
</mask>
</defs>
<g fill="rgb(100%, 100%, 100%)" fill-opacity="1">
<use xlink:href="#glyph-0-0" x="30" y="25.833008"/>
<use xlink:href="#glyph-0-1" x="31" y="25.833008"/>
<use xlink:href="#glyph-0-2" x="33" y="25.833008"/>
<use xlink:href="#glyph-0-3" x="37" y="25.833008"/>
<use xlink:href="#glyph-0-0" x="40" y="25.833008"/>
<use xlink:href="#glyph-0-4" x="41" y="25.833008"/>
<use xlink:href="#glyph-0-5" x="43" y="25.833008"/>
<use xlink:href="#glyph-0-6" x="45" y="25.833008"/>
<use xlink:href="#glyph-0-7" x="48" y="25.833008"/>
<use xlink:href="#glyph-0-8" x="52" y="25.833008"/>
<use xlink:href="#glyph-0-5" x="54" y="25.833008"/>
<use xlink:href="#glyph-0-7" x="56" y="25.833008"/>
<use xlink:href="#glyph-0-9" x="60" y="25.833008"/>
</g>
</svg>
